<?xml version="1.0" encoding="UTF-8" standalone="no"?>
<!DOCTYPE svg PUBLIC "-//W3C//DTD SVG 1.1//EN"
 "http://www.w3.org/Graphics/SVG/1.1/DTD/svg11.dtd">
<!-- Generated by graphviz version 12.1.1 (20240910.0053)
 -->
<!-- Title: D:/Engineering/Embedded_Linux/Abdulaal_Diploma/CPP_Module/OOP/Tasks/Project2/Code/Adaptive_Cruise_Control.hpp Pages: 1 -->
<svg width="561pt" height="232pt"
 viewBox="0.00 0.00 561.12 232.00" xmlns="http://www.w3.org/2000/svg" xmlns:xlink="http://www.w3.org/1999/xlink">
<g id="graph0" class="graph" transform="scale(1 1) rotate(0) translate(4 228)">
<title>D:/Engineering/Embedded_Linux/Abdulaal_Diploma/CPP_Module/OOP/Tasks/Project2/Code/Adaptive_Cruise_Control.hpp</title>
<!-- Node1 -->
<g id="Node000001" class="node">
<title>Node1</title>
<g id="a_Node000001"><a xlink:title="This is a header file for Adaptive_Cruise_Control class.">
<polygon fill="#999999" stroke="#666666" points="307.62,-224 134.88,-224 134.88,-168 307.62,-168 307.62,-224"/>
<text text-anchor="start" x="142.88" y="-210.5" font-family="Helvetica,sans-Serif" font-size="10.00">D:/Engineering/Embedded</text>
<text text-anchor="start" x="142.88" y="-198.5" font-family="Helvetica,sans-Serif" font-size="10.00">_Linux/Abdulaal_Diploma</text>
<text text-anchor="start" x="142.88" y="-186.5" font-family="Helvetica,sans-Serif" font-size="10.00">/CPP_Module/OOP/Tasks/Project2</text>
<text text-anchor="middle" x="221.25" y="-174.5" font-family="Helvetica,sans-Serif" font-size="10.00">/Code/Adaptive_Cruise_Control.hpp</text>
</a>
</g>
</g>
<!-- Node2 -->
<g id="Node000002" class="node">
<title>Node2</title>
<g id="a_Node000002"><a xlink:href="_speed___sensor_8hpp.html" target="_top" xlink:title="This is a header file for Speed_Sensor class.">
<polygon fill="white" stroke="#666666" points="98.5,-132 0,-132 0,-112 98.5,-112 98.5,-132"/>
<text text-anchor="middle" x="49.25" y="-118.5" font-family="Helvetica,sans-Serif" font-size="10.00">Speed_Sensor.hpp</text>
</a>
</g>
</g>
<!-- Node1&#45;&gt;Node2 -->
<g id="edge1_Node000001_Node000002" class="edge">
<title>Node1&#45;&gt;Node2</title>
<g id="a_edge1_Node000001_Node000002"><a xlink:title=" ">
<path fill="none" stroke="#63b8ff" d="M155.73,-167.57C130.63,-157.06 103.05,-145.52 82.25,-136.81"/>
<polygon fill="#63b8ff" stroke="#63b8ff" points="83.71,-133.63 73.14,-133 81.01,-140.09 83.71,-133.63"/>
</a>
</g>
</g>
<!-- Node6 -->
<g id="Node000006" class="node">
<title>Node6</title>
<g id="a_Node000006"><a xlink:href="_temp___sensor_8hpp.html" target="_top" xlink:title="This is a header file for Temp_Sensor class.">
<polygon fill="white" stroke="#666666" points="211.62,-132 116.88,-132 116.88,-112 211.62,-112 211.62,-132"/>
<text text-anchor="middle" x="164.25" y="-118.5" font-family="Helvetica,sans-Serif" font-size="10.00">Temp_Sensor.hpp</text>
</a>
</g>
</g>
<!-- Node1&#45;&gt;Node6 -->
<g id="edge5_Node000001_Node000006" class="edge">
<title>Node1&#45;&gt;Node6</title>
<g id="a_edge5_Node000001_Node000006"><a xlink:title=" ">
<path fill="none" stroke="#63b8ff" d="M199.7,-167.78C192.71,-158.95 185.12,-149.36 178.77,-141.34"/>
<polygon fill="#63b8ff" stroke="#63b8ff" points="181.64,-139.33 172.69,-133.66 176.15,-143.67 181.64,-139.33"/>
</a>
</g>
</g>
<!-- Node7 -->
<g id="Node000007" class="node">
<title>Node7</title>
<g id="a_Node000007"><a xlink:href="_radar___sensor_8hpp.html" target="_top" xlink:title="This is a header file for Radar_Sensor class.">
<polygon fill="white" stroke="#666666" points="326.75,-132 229.75,-132 229.75,-112 326.75,-112 326.75,-132"/>
<text text-anchor="middle" x="278.25" y="-118.5" font-family="Helvetica,sans-Serif" font-size="10.00">Radar_Sensor.hpp</text>
</a>
</g>
</g>
<!-- Node1&#45;&gt;Node7 -->
<g id="edge7_Node000001_Node000007" class="edge">
<title>Node1&#45;&gt;Node7</title>
<g id="a_edge7_Node000001_Node000007"><a xlink:title=" ">
<path fill="none" stroke="#63b8ff" d="M242.8,-167.78C249.79,-158.95 257.38,-149.36 263.73,-141.34"/>
<polygon fill="#63b8ff" stroke="#63b8ff" points="266.35,-143.67 269.81,-133.66 260.86,-139.33 266.35,-143.67"/>
</a>
</g>
</g>
<!-- Node8 -->
<g id="Node000008" class="node">
<title>Node8</title>
<g id="a_Node000008"><a xlink:href="_logger_8hpp.html" target="_top" xlink:title="This is a header file for Logger class.">
<polygon fill="white" stroke="#666666" points="409.25,-132 345.25,-132 345.25,-112 409.25,-112 409.25,-132"/>
<text text-anchor="middle" x="377.25" y="-118.5" font-family="Helvetica,sans-Serif" font-size="10.00">Logger.hpp</text>
</a>
</g>
</g>
<!-- Node1&#45;&gt;Node8 -->
<g id="edge9_Node000001_Node000008" class="edge">
<title>Node1&#45;&gt;Node8</title>
<g id="a_edge9_Node000001_Node000008"><a xlink:title=" ">
<path fill="none" stroke="#63b8ff" d="M280.67,-167.57C303.13,-157.21 327.77,-145.84 346.54,-137.17"/>
<polygon fill="#63b8ff" stroke="#63b8ff" points="347.86,-140.42 355.48,-133.05 344.93,-134.06 347.86,-140.42"/>
</a>
</g>
</g>
<!-- Node3 -->
<g id="Node000003" class="node">
<title>Node3</title>
<g id="a_Node000003"><a xlink:href="_sensor_8hpp.html" target="_top" xlink:title="This is a header file for Sensor class.">
<polygon fill="white" stroke="#666666" points="197,-76 131.5,-76 131.5,-56 197,-56 197,-76"/>
<text text-anchor="middle" x="164.25" y="-62.5" font-family="Helvetica,sans-Serif" font-size="10.00">Sensor.hpp</text>
</a>
</g>
</g>
<!-- Node2&#45;&gt;Node3 -->
<g id="edge2_Node000002_Node000003" class="edge">
<title>Node2&#45;&gt;Node3</title>
<g id="a_edge2_Node000002_Node000003"><a xlink:title=" ">
<path fill="none" stroke="#63b8ff" d="M69.28,-111.59C87.06,-103.24 113.32,-90.92 133.71,-81.34"/>
<polygon fill="#63b8ff" stroke="#63b8ff" points="135.13,-84.54 142.69,-77.12 132.15,-78.21 135.13,-84.54"/>
</a>
</g>
</g>
<!-- Node4 -->
<g id="Node000004" class="node">
<title>Node4</title>
<g id="a_Node000004"><a xlink:title=" ">
<polygon fill="#e0e0e0" stroke="#999999" points="255,-20 201.5,-20 201.5,0 255,0 255,-20"/>
<text text-anchor="middle" x="228.25" y="-6.5" font-family="Helvetica,sans-Serif" font-size="10.00">iostream</text>
</a>
</g>
</g>
<!-- Node3&#45;&gt;Node4 -->
<g id="edge3_Node000003_Node000004" class="edge">
<title>Node3&#45;&gt;Node4</title>
<g id="a_edge3_Node000003_Node000004"><a xlink:title=" ">
<path fill="none" stroke="#63b8ff" d="M175.4,-55.59C184.58,-47.85 197.8,-36.69 208.73,-27.47"/>
<polygon fill="#63b8ff" stroke="#63b8ff" points="210.69,-30.4 216.07,-21.27 206.17,-25.05 210.69,-30.4"/>
</a>
</g>
</g>
<!-- Node5 -->
<g id="Node000005" class="node">
<title>Node5</title>
<g id="a_Node000005"><a xlink:title=" ">
<polygon fill="#e0e0e0" stroke="#999999" points="183.5,-20 139,-20 139,0 183.5,0 183.5,-20"/>
<text text-anchor="middle" x="161.25" y="-6.5" font-family="Helvetica,sans-Serif" font-size="10.00">cstdlib</text>
</a>
</g>
</g>
<!-- Node3&#45;&gt;Node5 -->
<g id="edge4_Node000003_Node000005" class="edge">
<title>Node3&#45;&gt;Node5</title>
<g id="a_edge4_Node000003_Node000005"><a xlink:title=" ">
<path fill="none" stroke="#63b8ff" d="M163.73,-55.59C163.36,-49.01 162.86,-39.96 162.4,-31.73"/>
<polygon fill="#63b8ff" stroke="#63b8ff" points="165.9,-31.6 161.85,-21.81 158.91,-31.99 165.9,-31.6"/>
</a>
</g>
</g>
<!-- Node6&#45;&gt;Node3 -->
<g id="edge6_Node000006_Node000003" class="edge">
<title>Node6&#45;&gt;Node3</title>
<g id="a_edge6_Node000006_Node000003"><a xlink:title=" ">
<path fill="none" stroke="#63b8ff" d="M164.25,-111.59C164.25,-105.01 164.25,-95.96 164.25,-87.73"/>
<polygon fill="#63b8ff" stroke="#63b8ff" points="167.75,-87.81 164.25,-77.81 160.75,-87.81 167.75,-87.81"/>
</a>
</g>
</g>
<!-- Node7&#45;&gt;Node3 -->
<g id="edge8_Node000007_Node000003" class="edge">
<title>Node7&#45;&gt;Node3</title>
<g id="a_edge8_Node000007_Node000003"><a xlink:title=" ">
<path fill="none" stroke="#63b8ff" d="M258.39,-111.59C240.76,-103.24 214.74,-90.92 194.52,-81.34"/>
<polygon fill="#63b8ff" stroke="#63b8ff" points="196.17,-78.25 185.63,-77.13 193.17,-84.57 196.17,-78.25"/>
</a>
</g>
</g>
<!-- Node8&#45;&gt;Node4 -->
<g id="edge10_Node000008_Node000004" class="edge">
<title>Node8&#45;&gt;Node4</title>
<g id="a_edge10_Node000008_Node000004"><a xlink:title=" ">
<path fill="none" stroke="#63b8ff" d="M344.8,-113.39C310.92,-104.84 260.84,-90.27 247.25,-76 235.84,-64.02 231.23,-45.56 229.4,-31.37"/>
<polygon fill="#63b8ff" stroke="#63b8ff" points="232.92,-31.42 228.53,-21.78 225.94,-32.05 232.92,-31.42"/>
</a>
</g>
</g>
<!-- Node9 -->
<g id="Node000009" class="node">
<title>Node9</title>
<g id="a_Node000009"><a xlink:title=" ">
<polygon fill="#e0e0e0" stroke="#999999" points="296.25,-76 256.25,-76 256.25,-56 296.25,-56 296.25,-76"/>
<text text-anchor="middle" x="276.25" y="-62.5" font-family="Helvetica,sans-Serif" font-size="10.00">string</text>
</a>
</g>
</g>
<!-- Node8&#45;&gt;Node9 -->
<g id="edge11_Node000008_Node000009" class="edge">
<title>Node8&#45;&gt;Node9</title>
<g id="a_edge11_Node000008_Node000009"><a xlink:title=" ">
<path fill="none" stroke="#63b8ff" d="M359.66,-111.59C344.33,-103.4 321.83,-91.37 304.06,-81.87"/>
<polygon fill="#63b8ff" stroke="#63b8ff" points="305.78,-78.82 295.31,-77.19 302.48,-84.99 305.78,-78.82"/>
</a>
</g>
</g>
<!-- Node10 -->
<g id="Node000010" class="node">
<title>Node10</title>
<g id="a_Node000010"><a xlink:title=" ">
<polygon fill="#e0e0e0" stroke="#999999" points="363.75,-76 314.75,-76 314.75,-56 363.75,-56 363.75,-76"/>
<text text-anchor="middle" x="339.25" y="-62.5" font-family="Helvetica,sans-Serif" font-size="10.00">fstream</text>
</a>
</g>
</g>
<!-- Node8&#45;&gt;Node10 -->
<g id="edge12_Node000008_Node000010" class="edge">
<title>Node8&#45;&gt;Node10</title>
<g id="a_edge12_Node000008_Node000010"><a xlink:title=" ">
<path fill="none" stroke="#63b8ff" d="M370.63,-111.59C365.56,-104.39 358.41,-94.23 352.22,-85.43"/>
<polygon fill="#63b8ff" stroke="#63b8ff" points="355.28,-83.7 346.66,-77.54 349.56,-87.73 355.28,-83.7"/>
</a>
</g>
</g>
<!-- Node11 -->
<g id="Node000011" class="node">
<title>Node11</title>
<g id="a_Node000011"><a xlink:title=" ">
<polygon fill="#e0e0e0" stroke="#999999" points="426.88,-76 381.62,-76 381.62,-56 426.88,-56 426.88,-76"/>
<text text-anchor="middle" x="404.25" y="-62.5" font-family="Helvetica,sans-Serif" font-size="10.00">chrono</text>
</a>
</g>
</g>
<!-- Node8&#45;&gt;Node11 -->
<g id="edge13_Node000008_Node000011" class="edge">
<title>Node8&#45;&gt;Node11</title>
<g id="a_edge13_Node000008_Node000011"><a xlink:title=" ">
<path fill="none" stroke="#63b8ff" d="M381.95,-111.59C385.4,-104.7 390.2,-95.1 394.46,-86.57"/>
<polygon fill="#63b8ff" stroke="#63b8ff" points="397.58,-88.16 398.92,-77.65 391.32,-85.03 397.58,-88.16"/>
</a>
</g>
</g>
<!-- Node12 -->
<g id="Node000012" class="node">
<title>Node12</title>
<g id="a_Node000012"><a xlink:title=" ">
<polygon fill="#e0e0e0" stroke="#999999" points="485.25,-76 445.25,-76 445.25,-56 485.25,-56 485.25,-76"/>
<text text-anchor="middle" x="465.25" y="-62.5" font-family="Helvetica,sans-Serif" font-size="10.00">ctime</text>
</a>
</g>
</g>
<!-- Node8&#45;&gt;Node12 -->
<g id="edge14_Node000008_Node000012" class="edge">
<title>Node8&#45;&gt;Node12</title>
<g id="a_edge14_Node000008_Node000012"><a xlink:title=" ">
<path fill="none" stroke="#63b8ff" d="M392.58,-111.59C405.75,-103.51 424.98,-91.71 440.36,-82.27"/>
<polygon fill="#63b8ff" stroke="#63b8ff" points="441.82,-85.48 448.51,-77.27 438.16,-79.52 441.82,-85.48"/>
</a>
</g>
</g>
<!-- Node13 -->
<g id="Node000013" class="node">
<title>Node13</title>
<g id="a_Node000013"><a xlink:title=" ">
<polygon fill="#e0e0e0" stroke="#999999" points="553.12,-76 503.38,-76 503.38,-56 553.12,-56 553.12,-76"/>
<text text-anchor="middle" x="528.25" y="-62.5" font-family="Helvetica,sans-Serif" font-size="10.00">iomanip</text>
</a>
</g>
</g>
<!-- Node8&#45;&gt;Node13 -->
<g id="edge15_Node000008_Node000013" class="edge">
<title>Node8&#45;&gt;Node13</title>
<g id="a_edge15_Node000008_Node000013"><a xlink:title=" ">
<path fill="none" stroke="#63b8ff" d="M403.55,-111.59C428.21,-102.78 465.26,-89.53 492.58,-79.76"/>
<polygon fill="#63b8ff" stroke="#63b8ff" points="493.59,-83.11 501.83,-76.45 491.23,-76.52 493.59,-83.11"/>
</a>
</g>
</g>
</g>
</svg>
