<?xml version="1.0" encoding="UTF-8" standalone="no"?>
<!DOCTYPE svg PUBLIC "-//W3C//DTD SVG 1.1//EN"
 "http://www.w3.org/Graphics/SVG/1.1/DTD/svg11.dtd">
<!-- Generated by graphviz version 12.1.1 (20240910.0053)
 -->
<!-- Title: D:/Engineering/Embedded_Linux/Abdulaal_Diploma/CPP_Module/OOP/Tasks/Project2/Code/Battery_Sensor.hpp Pages: 1 -->
<svg width="479pt" height="340pt"
 viewBox="0.00 0.00 478.75 340.00" xmlns="http://www.w3.org/2000/svg" xmlns:xlink="http://www.w3.org/1999/xlink">
<g id="graph0" class="graph" transform="scale(1 1) rotate(0) translate(4 336)">
<title>D:/Engineering/Embedded_Linux/Abdulaal_Diploma/CPP_Module/OOP/Tasks/Project2/Code/Battery_Sensor.hpp</title>
<!-- Node1 -->
<g id="Node000001" class="node">
<title>Node1</title>
<g id="a_Node000001"><a xlink:title="This is a header file for Battery_Sensor class.">
<polygon fill="#999999" stroke="#666666" points="357.75,-332 188,-332 188,-276 357.75,-276 357.75,-332"/>
<text text-anchor="start" x="196" y="-318.5" font-family="Helvetica,sans-Serif" font-size="10.00">D:/Engineering/Embedded</text>
<text text-anchor="start" x="196" y="-306.5" font-family="Helvetica,sans-Serif" font-size="10.00">_Linux/Abdulaal_Diploma</text>
<text text-anchor="start" x="196" y="-294.5" font-family="Helvetica,sans-Serif" font-size="10.00">/CPP_Module/OOP/Tasks/Project2</text>
<text text-anchor="middle" x="272.88" y="-282.5" font-family="Helvetica,sans-Serif" font-size="10.00">/Code/Battery_Sensor.hpp</text>
</a>
</g>
</g>
<!-- Node2 -->
<g id="Node000002" class="node">
<title>Node2</title>
<g id="a_Node000002"><a xlink:href="_battery___sensor_8cpp.html" target="_top" xlink:title="This is a cpp file for Battery_Sensor class.">
<polygon fill="white" stroke="#666666" points="169.75,-240 0,-240 0,-184 169.75,-184 169.75,-240"/>
<text text-anchor="start" x="8" y="-226.5" font-family="Helvetica,sans-Serif" font-size="10.00">D:/Engineering/Embedded</text>
<text text-anchor="start" x="8" y="-214.5" font-family="Helvetica,sans-Serif" font-size="10.00">_Linux/Abdulaal_Diploma</text>
<text text-anchor="start" x="8" y="-202.5" font-family="Helvetica,sans-Serif" font-size="10.00">/CPP_Module/OOP/Tasks/Project2</text>
<text text-anchor="middle" x="84.88" y="-190.5" font-family="Helvetica,sans-Serif" font-size="10.00">/Code/Battery_Sensor.cpp</text>
</a>
</g>
</g>
<!-- Node1&#45;&gt;Node2 -->
<g id="edge1_Node000001_Node000002" class="edge">
<title>Node1&#45;&gt;Node2</title>
<g id="a_edge1_Node000001_Node000002"><a xlink:title=" ">
<path fill="none" stroke="#63b8ff" d="M205.18,-270.59C184.57,-260.73 162.13,-249.99 142.27,-240.48"/>
<polygon fill="#63b8ff" stroke="#63b8ff" points="203.55,-273.69 214.08,-274.85 206.57,-267.38 203.55,-273.69"/>
</a>
</g>
</g>
<!-- Node3 -->
<g id="Node000003" class="node">
<title>Node3</title>
<g id="a_Node000003"><a xlink:href="_diagnostics_8hpp.html" target="_top" xlink:title="This is a header file for Diagnostics class.">
<polygon fill="white" stroke="#666666" points="357.75,-240 188,-240 188,-184 357.75,-184 357.75,-240"/>
<text text-anchor="start" x="196" y="-226.5" font-family="Helvetica,sans-Serif" font-size="10.00">D:/Engineering/Embedded</text>
<text text-anchor="start" x="196" y="-214.5" font-family="Helvetica,sans-Serif" font-size="10.00">_Linux/Abdulaal_Diploma</text>
<text text-anchor="start" x="196" y="-202.5" font-family="Helvetica,sans-Serif" font-size="10.00">/CPP_Module/OOP/Tasks/Project2</text>
<text text-anchor="middle" x="272.88" y="-190.5" font-family="Helvetica,sans-Serif" font-size="10.00">/Code/Diagnostics.hpp</text>
</a>
</g>
</g>
<!-- Node1&#45;&gt;Node3 -->
<g id="edge2_Node000001_Node000003" class="edge">
<title>Node1&#45;&gt;Node3</title>
<g id="a_edge2_Node000001_Node000003"><a xlink:title=" ">
<path fill="none" stroke="#63b8ff" d="M272.88,-264.09C272.88,-256.08 272.88,-247.81 272.88,-240.32"/>
<polygon fill="#63b8ff" stroke="#63b8ff" points="269.38,-263.99 272.88,-273.99 276.38,-263.99 269.38,-263.99"/>
</a>
</g>
</g>
<!-- Node5 -->
<g id="Node000005" class="node">
<title>Node5</title>
<g id="a_Node000005"><a xlink:href="_vehicle_8hpp.html" target="_top" xlink:title="This is a header file for Vehicle class.">
<polygon fill="white" stroke="#666666" points="470.75,-148 301,-148 301,-92 470.75,-92 470.75,-148"/>
<text text-anchor="start" x="309" y="-134.5" font-family="Helvetica,sans-Serif" font-size="10.00">D:/Engineering/Embedded</text>
<text text-anchor="start" x="309" y="-122.5" font-family="Helvetica,sans-Serif" font-size="10.00">_Linux/Abdulaal_Diploma</text>
<text text-anchor="start" x="309" y="-110.5" font-family="Helvetica,sans-Serif" font-size="10.00">/CPP_Module/OOP/Tasks/Project2</text>
<text text-anchor="middle" x="385.88" y="-98.5" font-family="Helvetica,sans-Serif" font-size="10.00">/Code/Vehicle.hpp</text>
</a>
</g>
</g>
<!-- Node1&#45;&gt;Node5 -->
<g id="edge6_Node000001_Node000005" class="edge">
<title>Node1&#45;&gt;Node5</title>
<g id="a_edge6_Node000001_Node000005"><a xlink:title=" ">
<path fill="none" stroke="#63b8ff" d="M338.86,-269.17C349.67,-260.96 359.68,-251.25 366.88,-240 384.58,-212.33 387.72,-173.85 387.49,-148.21"/>
<polygon fill="#63b8ff" stroke="#63b8ff" points="337.01,-266.19 330.87,-274.83 341.06,-271.9 337.01,-266.19"/>
</a>
</g>
</g>
<!-- Node4 -->
<g id="Node000004" class="node">
<title>Node4</title>
<g id="a_Node000004"><a xlink:href="_diagnostics_8cpp.html" target="_top" xlink:title="This is a cpp file for Diagnostics class.">
<polygon fill="white" stroke="#666666" points="282.75,-148 113,-148 113,-92 282.75,-92 282.75,-148"/>
<text text-anchor="start" x="121" y="-134.5" font-family="Helvetica,sans-Serif" font-size="10.00">D:/Engineering/Embedded</text>
<text text-anchor="start" x="121" y="-122.5" font-family="Helvetica,sans-Serif" font-size="10.00">_Linux/Abdulaal_Diploma</text>
<text text-anchor="start" x="121" y="-110.5" font-family="Helvetica,sans-Serif" font-size="10.00">/CPP_Module/OOP/Tasks/Project2</text>
<text text-anchor="middle" x="197.88" y="-98.5" font-family="Helvetica,sans-Serif" font-size="10.00">/Code/Diagnostics.cpp</text>
</a>
</g>
</g>
<!-- Node3&#45;&gt;Node4 -->
<g id="edge3_Node000003_Node000004" class="edge">
<title>Node3&#45;&gt;Node4</title>
<g id="a_edge3_Node000003_Node000004"><a xlink:title=" ">
<path fill="none" stroke="#63b8ff" d="M242.76,-174.87C235.39,-166.01 227.61,-156.69 220.64,-148.32"/>
<polygon fill="#63b8ff" stroke="#63b8ff" points="239.91,-176.9 249,-182.35 245.28,-172.42 239.91,-176.9"/>
</a>
</g>
</g>
<!-- Node3&#45;&gt;Node5 -->
<g id="edge4_Node000003_Node000005" class="edge">
<title>Node3&#45;&gt;Node5</title>
<g id="a_edge4_Node000003_Node000005"><a xlink:title=" ">
<path fill="none" stroke="#63b8ff" d="M316.16,-176.52C327.89,-167.18 340.41,-157.21 351.57,-148.32"/>
<polygon fill="#63b8ff" stroke="#63b8ff" points="314.22,-173.6 308.58,-182.57 318.58,-179.07 314.22,-173.6"/>
</a>
</g>
</g>
<!-- Node6 -->
<g id="Node000006" class="node">
<title>Node6</title>
<g id="a_Node000006"><a xlink:href="_vehicle_8cpp.html" target="_top" xlink:title="This is a header file for Vehicle class.">
<polygon fill="white" stroke="#666666" points="470.75,-56 301,-56 301,0 470.75,0 470.75,-56"/>
<text text-anchor="start" x="309" y="-42.5" font-family="Helvetica,sans-Serif" font-size="10.00">D:/Engineering/Embedded</text>
<text text-anchor="start" x="309" y="-30.5" font-family="Helvetica,sans-Serif" font-size="10.00">_Linux/Abdulaal_Diploma</text>
<text text-anchor="start" x="309" y="-18.5" font-family="Helvetica,sans-Serif" font-size="10.00">/CPP_Module/OOP/Tasks/Project2</text>
<text text-anchor="middle" x="385.88" y="-6.5" font-family="Helvetica,sans-Serif" font-size="10.00">/Code/Vehicle.cpp</text>
</a>
</g>
</g>
<!-- Node5&#45;&gt;Node6 -->
<g id="edge5_Node000005_Node000006" class="edge">
<title>Node5&#45;&gt;Node6</title>
<g id="a_edge5_Node000005_Node000006"><a xlink:title=" ">
<path fill="none" stroke="#63b8ff" d="M385.88,-80.09C385.88,-72.08 385.88,-63.81 385.88,-56.32"/>
<polygon fill="#63b8ff" stroke="#63b8ff" points="382.38,-79.99 385.88,-89.99 389.38,-79.99 382.38,-79.99"/>
</a>
</g>
</g>
</g>
</svg>
