<?xml version="1.0" encoding="UTF-8" standalone="no"?>
<!DOCTYPE svg PUBLIC "-//W3C//DTD SVG 1.1//EN"
 "http://www.w3.org/Graphics/SVG/1.1/DTD/svg11.dtd">
<!-- Generated by graphviz version 12.1.1 (20240910.0053)
 -->
<!-- Title: D:/Engineering/Embedded_Linux/Abdulaal_Diploma/CPP_Module/OOP/Tasks/Project2/Code/Diagnostics.cpp Pages: 1 -->
<svg width="665pt" height="288pt"
 viewBox="0.00 0.00 665.12 288.00" xmlns="http://www.w3.org/2000/svg" xmlns:xlink="http://www.w3.org/1999/xlink">
<g id="graph0" class="graph" transform="scale(1 1) rotate(0) translate(4 284)">
<title>D:/Engineering/Embedded_Linux/Abdulaal_Diploma/CPP_Module/OOP/Tasks/Project2/Code/Diagnostics.cpp</title>
<!-- Node1 -->
<g id="Node000001" class="node">
<title>Node1</title>
<g id="a_Node000001"><a xlink:title="This is a cpp file for Diagnostics class.">
<polygon fill="#999999" stroke="#666666" points="364.12,-280 194.38,-280 194.38,-224 364.12,-224 364.12,-280"/>
<text text-anchor="start" x="202.38" y="-266.5" font-family="Helvetica,sans-Serif" font-size="10.00">D:/Engineering/Embedded</text>
<text text-anchor="start" x="202.38" y="-254.5" font-family="Helvetica,sans-Serif" font-size="10.00">_Linux/Abdulaal_Diploma</text>
<text text-anchor="start" x="202.38" y="-242.5" font-family="Helvetica,sans-Serif" font-size="10.00">/CPP_Module/OOP/Tasks/Project2</text>
<text text-anchor="middle" x="279.25" y="-230.5" font-family="Helvetica,sans-Serif" font-size="10.00">/Code/Diagnostics.cpp</text>
</a>
</g>
</g>
<!-- Node2 -->
<g id="Node000002" class="node">
<title>Node2</title>
<g id="a_Node000002"><a xlink:href="_diagnostics_8hpp.html" target="_top" xlink:title="This is a header file for Diagnostics class.">
<polygon fill="white" stroke="#666666" points="322.5,-188 236,-188 236,-168 322.5,-168 322.5,-188"/>
<text text-anchor="middle" x="279.25" y="-174.5" font-family="Helvetica,sans-Serif" font-size="10.00">Diagnostics.hpp</text>
</a>
</g>
</g>
<!-- Node1&#45;&gt;Node2 -->
<g id="edge1_Node000001_Node000002" class="edge">
<title>Node1&#45;&gt;Node2</title>
<g id="a_edge1_Node000001_Node000002"><a xlink:title=" ">
<path fill="none" stroke="#63b8ff" d="M279.25,-223.78C279.25,-215.82 279.25,-207.25 279.25,-199.76"/>
<polygon fill="#63b8ff" stroke="#63b8ff" points="282.75,-199.99 279.25,-189.99 275.75,-199.99 282.75,-199.99"/>
</a>
</g>
</g>
<!-- Node3 -->
<g id="Node000003" class="node">
<title>Node3</title>
<g id="a_Node000003"><a xlink:href="_speed___sensor_8hpp.html" target="_top" xlink:title="This is a header file for Speed_Sensor class.">
<polygon fill="white" stroke="#666666" points="98.5,-132 0,-132 0,-112 98.5,-112 98.5,-132"/>
<text text-anchor="middle" x="49.25" y="-118.5" font-family="Helvetica,sans-Serif" font-size="10.00">Speed_Sensor.hpp</text>
</a>
</g>
</g>
<!-- Node2&#45;&gt;Node3 -->
<g id="edge2_Node000002_Node000003" class="edge">
<title>Node2&#45;&gt;Node3</title>
<g id="a_edge2_Node000002_Node000003"><a xlink:title=" ">
<path fill="none" stroke="#63b8ff" d="M238.92,-167.53C200.45,-158.5 142.33,-144.85 100.58,-135.05"/>
<polygon fill="#63b8ff" stroke="#63b8ff" points="101.54,-131.68 91,-132.8 99.94,-138.5 101.54,-131.68"/>
</a>
</g>
</g>
<!-- Node7 -->
<g id="Node000007" class="node">
<title>Node7</title>
<g id="a_Node000007"><a xlink:href="_radar___sensor_8hpp.html" target="_top" xlink:title="This is a header file for Radar_Sensor class.">
<polygon fill="white" stroke="#666666" points="213.75,-132 116.75,-132 116.75,-112 213.75,-112 213.75,-132"/>
<text text-anchor="middle" x="165.25" y="-118.5" font-family="Helvetica,sans-Serif" font-size="10.00">Radar_Sensor.hpp</text>
</a>
</g>
</g>
<!-- Node2&#45;&gt;Node7 -->
<g id="edge6_Node000002_Node000007" class="edge">
<title>Node2&#45;&gt;Node7</title>
<g id="a_edge6_Node000002_Node000007"><a xlink:title=" ">
<path fill="none" stroke="#63b8ff" d="M259.39,-167.59C241.76,-159.24 215.74,-146.92 195.52,-137.34"/>
<polygon fill="#63b8ff" stroke="#63b8ff" points="197.17,-134.25 186.63,-133.13 194.17,-140.57 197.17,-134.25"/>
</a>
</g>
</g>
<!-- Node8 -->
<g id="Node000008" class="node">
<title>Node8</title>
<g id="a_Node000008"><a xlink:href="_temp___sensor_8hpp.html" target="_top" xlink:title="This is a header file for Temp_Sensor class.">
<polygon fill="white" stroke="#666666" points="326.62,-132 231.88,-132 231.88,-112 326.62,-112 326.62,-132"/>
<text text-anchor="middle" x="279.25" y="-118.5" font-family="Helvetica,sans-Serif" font-size="10.00">Temp_Sensor.hpp</text>
</a>
</g>
</g>
<!-- Node2&#45;&gt;Node8 -->
<g id="edge8_Node000002_Node000008" class="edge">
<title>Node2&#45;&gt;Node8</title>
<g id="a_edge8_Node000002_Node000008"><a xlink:title=" ">
<path fill="none" stroke="#63b8ff" d="M279.25,-167.59C279.25,-161.01 279.25,-151.96 279.25,-143.73"/>
<polygon fill="#63b8ff" stroke="#63b8ff" points="282.75,-143.81 279.25,-133.81 275.75,-143.81 282.75,-143.81"/>
</a>
</g>
</g>
<!-- Node9 -->
<g id="Node000009" class="node">
<title>Node9</title>
<g id="a_Node000009"><a xlink:href="_battery___sensor_8hpp.html" target="_top" xlink:title="This is a header file for Battery_Sensor class.">
<polygon fill="white" stroke="#666666" points="447.38,-132 345.12,-132 345.12,-112 447.38,-112 447.38,-132"/>
<text text-anchor="middle" x="396.25" y="-118.5" font-family="Helvetica,sans-Serif" font-size="10.00">Battery_Sensor.hpp</text>
</a>
</g>
</g>
<!-- Node2&#45;&gt;Node9 -->
<g id="edge10_Node000002_Node000009" class="edge">
<title>Node2&#45;&gt;Node9</title>
<g id="a_edge10_Node000002_Node000009"><a xlink:title=" ">
<path fill="none" stroke="#63b8ff" d="M299.63,-167.59C317.81,-159.21 344.68,-146.8 365.47,-137.21"/>
<polygon fill="#63b8ff" stroke="#63b8ff" points="366.72,-140.48 374.34,-133.11 363.79,-134.13 366.72,-140.48"/>
</a>
</g>
</g>
<!-- Node10 -->
<g id="Node000010" class="node">
<title>Node10</title>
<g id="a_Node000010"><a xlink:href="_logger_8hpp.html" target="_top" xlink:title="This is a header file for Logger class.">
<polygon fill="white" stroke="#666666" points="529.25,-132 465.25,-132 465.25,-112 529.25,-112 529.25,-132"/>
<text text-anchor="middle" x="497.25" y="-118.5" font-family="Helvetica,sans-Serif" font-size="10.00">Logger.hpp</text>
</a>
</g>
</g>
<!-- Node2&#45;&gt;Node10 -->
<g id="edge12_Node000002_Node000010" class="edge">
<title>Node2&#45;&gt;Node10</title>
<g id="a_edge12_Node000002_Node000010"><a xlink:title=" ">
<path fill="none" stroke="#63b8ff" d="M317.47,-167.53C355.56,-158.1 413.97,-143.63 453.8,-133.76"/>
<polygon fill="#63b8ff" stroke="#63b8ff" points="454.43,-137.21 463.3,-131.41 452.75,-130.42 454.43,-137.21"/>
</a>
</g>
</g>
<!-- Node4 -->
<g id="Node000004" class="node">
<title>Node4</title>
<g id="a_Node000004"><a xlink:href="_sensor_8hpp.html" target="_top" xlink:title="This is a header file for Sensor class.">
<polygon fill="white" stroke="#666666" points="301,-76 235.5,-76 235.5,-56 301,-56 301,-76"/>
<text text-anchor="middle" x="268.25" y="-62.5" font-family="Helvetica,sans-Serif" font-size="10.00">Sensor.hpp</text>
</a>
</g>
</g>
<!-- Node3&#45;&gt;Node4 -->
<g id="edge3_Node000003_Node000004" class="edge">
<title>Node3&#45;&gt;Node4</title>
<g id="a_edge3_Node000003_Node000004"><a xlink:title=" ">
<path fill="none" stroke="#63b8ff" d="M87.65,-111.53C125.8,-102.12 184.25,-87.71 224.25,-77.85"/>
<polygon fill="#63b8ff" stroke="#63b8ff" points="224.93,-81.29 233.8,-75.49 223.25,-74.49 224.93,-81.29"/>
</a>
</g>
</g>
<!-- Node5 -->
<g id="Node000005" class="node">
<title>Node5</title>
<g id="a_Node000005"><a xlink:title=" ">
<polygon fill="#e0e0e0" stroke="#999999" points="359,-20 305.5,-20 305.5,0 359,0 359,-20"/>
<text text-anchor="middle" x="332.25" y="-6.5" font-family="Helvetica,sans-Serif" font-size="10.00">iostream</text>
</a>
</g>
</g>
<!-- Node4&#45;&gt;Node5 -->
<g id="edge4_Node000004_Node000005" class="edge">
<title>Node4&#45;&gt;Node5</title>
<g id="a_edge4_Node000004_Node000005"><a xlink:title=" ">
<path fill="none" stroke="#63b8ff" d="M279.4,-55.59C288.58,-47.85 301.8,-36.69 312.73,-27.47"/>
<polygon fill="#63b8ff" stroke="#63b8ff" points="314.69,-30.4 320.07,-21.27 310.17,-25.05 314.69,-30.4"/>
</a>
</g>
</g>
<!-- Node6 -->
<g id="Node000006" class="node">
<title>Node6</title>
<g id="a_Node000006"><a xlink:title=" ">
<polygon fill="#e0e0e0" stroke="#999999" points="287.5,-20 243,-20 243,0 287.5,0 287.5,-20"/>
<text text-anchor="middle" x="265.25" y="-6.5" font-family="Helvetica,sans-Serif" font-size="10.00">cstdlib</text>
</a>
</g>
</g>
<!-- Node4&#45;&gt;Node6 -->
<g id="edge5_Node000004_Node000006" class="edge">
<title>Node4&#45;&gt;Node6</title>
<g id="a_edge5_Node000004_Node000006"><a xlink:title=" ">
<path fill="none" stroke="#63b8ff" d="M267.73,-55.59C267.36,-49.01 266.86,-39.96 266.4,-31.73"/>
<polygon fill="#63b8ff" stroke="#63b8ff" points="269.9,-31.6 265.85,-21.81 262.91,-31.99 269.9,-31.6"/>
</a>
</g>
</g>
<!-- Node7&#45;&gt;Node4 -->
<g id="edge7_Node000007_Node000004" class="edge">
<title>Node7&#45;&gt;Node4</title>
<g id="a_edge7_Node000007_Node000004"><a xlink:title=" ">
<path fill="none" stroke="#63b8ff" d="M183.19,-111.59C198.9,-103.36 221.98,-91.26 240.14,-81.74"/>
<polygon fill="#63b8ff" stroke="#63b8ff" points="241.6,-84.93 248.83,-77.18 238.35,-78.73 241.6,-84.93"/>
</a>
</g>
</g>
<!-- Node8&#45;&gt;Node4 -->
<g id="edge9_Node000008_Node000004" class="edge">
<title>Node8&#45;&gt;Node4</title>
<g id="a_edge9_Node000008_Node000004"><a xlink:title=" ">
<path fill="none" stroke="#63b8ff" d="M277.33,-111.59C275.98,-104.93 274.11,-95.75 272.41,-87.44"/>
<polygon fill="#63b8ff" stroke="#63b8ff" points="275.87,-86.88 270.45,-77.78 269.01,-88.28 275.87,-86.88"/>
</a>
</g>
</g>
<!-- Node9&#45;&gt;Node4 -->
<g id="edge11_Node000009_Node000004" class="edge">
<title>Node9&#45;&gt;Node4</title>
<g id="a_edge11_Node000009_Node000004"><a xlink:title=" ">
<path fill="none" stroke="#63b8ff" d="M373.95,-111.59C353.89,-103.13 324.13,-90.58 301.3,-80.94"/>
<polygon fill="#63b8ff" stroke="#63b8ff" points="302.69,-77.73 292.11,-77.07 299.97,-84.18 302.69,-77.73"/>
</a>
</g>
</g>
<!-- Node10&#45;&gt;Node5 -->
<g id="edge13_Node000010_Node000005" class="edge">
<title>Node10&#45;&gt;Node5</title>
<g id="a_edge13_Node000010_Node000005"><a xlink:title=" ">
<path fill="none" stroke="#63b8ff" d="M465.1,-112.82C424.63,-102.26 359.4,-84.27 351.25,-76 339.63,-64.21 335.05,-45.74 333.27,-31.49"/>
<polygon fill="#63b8ff" stroke="#63b8ff" points="336.79,-31.51 332.46,-21.84 329.81,-32.1 336.79,-31.51"/>
</a>
</g>
</g>
<!-- Node11 -->
<g id="Node000011" class="node">
<title>Node11</title>
<g id="a_Node000011"><a xlink:title=" ">
<polygon fill="#e0e0e0" stroke="#999999" points="400.25,-76 360.25,-76 360.25,-56 400.25,-56 400.25,-76"/>
<text text-anchor="middle" x="380.25" y="-62.5" font-family="Helvetica,sans-Serif" font-size="10.00">string</text>
</a>
</g>
</g>
<!-- Node10&#45;&gt;Node11 -->
<g id="edge14_Node000010_Node000011" class="edge">
<title>Node10&#45;&gt;Node11</title>
<g id="a_edge14_Node000010_Node000011"><a xlink:title=" ">
<path fill="none" stroke="#63b8ff" d="M476.87,-111.59C458.58,-103.15 431.49,-90.65 410.65,-81.03"/>
<polygon fill="#63b8ff" stroke="#63b8ff" points="412.32,-77.95 401.77,-76.93 409.38,-84.3 412.32,-77.95"/>
</a>
</g>
</g>
<!-- Node12 -->
<g id="Node000012" class="node">
<title>Node12</title>
<g id="a_Node000012"><a xlink:title=" ">
<polygon fill="#e0e0e0" stroke="#999999" points="467.75,-76 418.75,-76 418.75,-56 467.75,-56 467.75,-76"/>
<text text-anchor="middle" x="443.25" y="-62.5" font-family="Helvetica,sans-Serif" font-size="10.00">fstream</text>
</a>
</g>
</g>
<!-- Node10&#45;&gt;Node12 -->
<g id="edge15_Node000010_Node000012" class="edge">
<title>Node10&#45;&gt;Node12</title>
<g id="a_edge15_Node000010_Node000012"><a xlink:title=" ">
<path fill="none" stroke="#63b8ff" d="M487.84,-111.59C480.33,-104.08 469.6,-93.35 460.55,-84.3"/>
<polygon fill="#63b8ff" stroke="#63b8ff" points="463.16,-81.96 453.62,-77.37 458.21,-86.91 463.16,-81.96"/>
</a>
</g>
</g>
<!-- Node13 -->
<g id="Node000013" class="node">
<title>Node13</title>
<g id="a_Node000013"><a xlink:title=" ">
<polygon fill="#e0e0e0" stroke="#999999" points="530.88,-76 485.62,-76 485.62,-56 530.88,-56 530.88,-76"/>
<text text-anchor="middle" x="508.25" y="-62.5" font-family="Helvetica,sans-Serif" font-size="10.00">chrono</text>
</a>
</g>
</g>
<!-- Node10&#45;&gt;Node13 -->
<g id="edge16_Node000010_Node000013" class="edge">
<title>Node10&#45;&gt;Node13</title>
<g id="a_edge16_Node000010_Node000013"><a xlink:title=" ">
<path fill="none" stroke="#63b8ff" d="M499.17,-111.59C500.52,-104.93 502.39,-95.75 504.09,-87.44"/>
<polygon fill="#63b8ff" stroke="#63b8ff" points="507.49,-88.28 506.05,-77.78 500.63,-86.88 507.49,-88.28"/>
</a>
</g>
</g>
<!-- Node14 -->
<g id="Node000014" class="node">
<title>Node14</title>
<g id="a_Node000014"><a xlink:title=" ">
<polygon fill="#e0e0e0" stroke="#999999" points="589.25,-76 549.25,-76 549.25,-56 589.25,-56 589.25,-76"/>
<text text-anchor="middle" x="569.25" y="-62.5" font-family="Helvetica,sans-Serif" font-size="10.00">ctime</text>
</a>
</g>
</g>
<!-- Node10&#45;&gt;Node14 -->
<g id="edge17_Node000010_Node000014" class="edge">
<title>Node10&#45;&gt;Node14</title>
<g id="a_edge17_Node000010_Node000014"><a xlink:title=" ">
<path fill="none" stroke="#63b8ff" d="M509.79,-111.59C520.22,-103.77 535.3,-92.46 547.66,-83.19"/>
<polygon fill="#63b8ff" stroke="#63b8ff" points="549.74,-86.01 555.64,-77.21 545.54,-80.41 549.74,-86.01"/>
</a>
</g>
</g>
<!-- Node15 -->
<g id="Node000015" class="node">
<title>Node15</title>
<g id="a_Node000015"><a xlink:title=" ">
<polygon fill="#e0e0e0" stroke="#999999" points="657.12,-76 607.38,-76 607.38,-56 657.12,-56 657.12,-76"/>
<text text-anchor="middle" x="632.25" y="-62.5" font-family="Helvetica,sans-Serif" font-size="10.00">iomanip</text>
</a>
</g>
</g>
<!-- Node10&#45;&gt;Node15 -->
<g id="edge18_Node000010_Node000015" class="edge">
<title>Node10&#45;&gt;Node15</title>
<g id="a_edge18_Node000010_Node000015"><a xlink:title=" ">
<path fill="none" stroke="#63b8ff" d="M520.77,-111.59C542.12,-103.05 573.88,-90.35 598.05,-80.68"/>
<polygon fill="#63b8ff" stroke="#63b8ff" points="599.16,-84.01 607.15,-77.04 596.56,-77.51 599.16,-84.01"/>
</a>
</g>
</g>
</g>
</svg>
