<?xml version="1.0" encoding="UTF-8" standalone="no"?>
<!DOCTYPE svg PUBLIC "-//W3C//DTD SVG 1.1//EN"
 "http://www.w3.org/Graphics/SVG/1.1/DTD/svg11.dtd">
<!-- Generated by graphviz version 12.1.1 (20240910.0053)
 -->
<!-- Title: D:/Engineering/Embedded_Linux/Abdulaal_Diploma/CPP_Module/OOP/Tasks/Project2/Code/Logger.hpp Pages: 1 -->
<svg width="377pt" height="120pt"
 viewBox="0.00 0.00 376.62 120.00" xmlns="http://www.w3.org/2000/svg" xmlns:xlink="http://www.w3.org/1999/xlink">
<g id="graph0" class="graph" transform="scale(1 1) rotate(0) translate(4 116)">
<title>D:/Engineering/Embedded_Linux/Abdulaal_Diploma/CPP_Module/OOP/Tasks/Project2/Code/Logger.hpp</title>
<!-- Node1 -->
<g id="Node000001" class="node">
<title>Node1</title>
<g id="a_Node000001"><a xlink:title="This is a header file for Logger class.">
<polygon fill="#999999" stroke="#666666" points="271.62,-112 101.88,-112 101.88,-56 271.62,-56 271.62,-112"/>
<text text-anchor="start" x="109.88" y="-98.5" font-family="Helvetica,sans-Serif" font-size="10.00">D:/Engineering/Embedded</text>
<text text-anchor="start" x="109.88" y="-86.5" font-family="Helvetica,sans-Serif" font-size="10.00">_Linux/Abdulaal_Diploma</text>
<text text-anchor="start" x="109.88" y="-74.5" font-family="Helvetica,sans-Serif" font-size="10.00">/CPP_Module/OOP/Tasks/Project2</text>
<text text-anchor="middle" x="186.75" y="-62.5" font-family="Helvetica,sans-Serif" font-size="10.00">/Code/Logger.hpp</text>
</a>
</g>
</g>
<!-- Node2 -->
<g id="Node000002" class="node">
<title>Node2</title>
<g id="a_Node000002"><a xlink:title=" ">
<polygon fill="#e0e0e0" stroke="#999999" points="53.5,-20 0,-20 0,0 53.5,0 53.5,-20"/>
<text text-anchor="middle" x="26.75" y="-6.5" font-family="Helvetica,sans-Serif" font-size="10.00">iostream</text>
</a>
</g>
</g>
<!-- Node1&#45;&gt;Node2 -->
<g id="edge1_Node000001_Node000002" class="edge">
<title>Node1&#45;&gt;Node2</title>
<g id="a_edge1_Node000001_Node000002"><a xlink:title=" ">
<path fill="none" stroke="#63b8ff" d="M125.8,-55.57C102.66,-45.16 77.26,-33.73 57.98,-25.05"/>
<polygon fill="#63b8ff" stroke="#63b8ff" points="59.61,-21.95 49.05,-21.04 56.74,-28.33 59.61,-21.95"/>
</a>
</g>
</g>
<!-- Node3 -->
<g id="Node000003" class="node">
<title>Node3</title>
<g id="a_Node000003"><a xlink:title=" ">
<polygon fill="#e0e0e0" stroke="#999999" points="111.75,-20 71.75,-20 71.75,0 111.75,0 111.75,-20"/>
<text text-anchor="middle" x="91.75" y="-6.5" font-family="Helvetica,sans-Serif" font-size="10.00">string</text>
</a>
</g>
</g>
<!-- Node1&#45;&gt;Node3 -->
<g id="edge2_Node000001_Node000003" class="edge">
<title>Node1&#45;&gt;Node3</title>
<g id="a_edge2_Node000001_Node000003"><a xlink:title=" ">
<path fill="none" stroke="#63b8ff" d="M150.56,-55.57C137.91,-45.98 124.12,-35.53 113.07,-27.16"/>
<polygon fill="#63b8ff" stroke="#63b8ff" points="115.46,-24.58 105.38,-21.33 111.23,-30.16 115.46,-24.58"/>
</a>
</g>
</g>
<!-- Node4 -->
<g id="Node000004" class="node">
<title>Node4</title>
<g id="a_Node000004"><a xlink:title=" ">
<polygon fill="#e0e0e0" stroke="#999999" points="179.25,-20 130.25,-20 130.25,0 179.25,0 179.25,-20"/>
<text text-anchor="middle" x="154.75" y="-6.5" font-family="Helvetica,sans-Serif" font-size="10.00">fstream</text>
</a>
</g>
</g>
<!-- Node1&#45;&gt;Node4 -->
<g id="edge3_Node000001_Node000004" class="edge">
<title>Node1&#45;&gt;Node4</title>
<g id="a_edge3_Node000001_Node000004"><a xlink:title=" ">
<path fill="none" stroke="#63b8ff" d="M174.65,-55.78C170.99,-47.53 167.03,-38.62 163.61,-30.94"/>
<polygon fill="#63b8ff" stroke="#63b8ff" points="166.83,-29.57 159.57,-21.86 160.44,-32.42 166.83,-29.57"/>
</a>
</g>
</g>
<!-- Node5 -->
<g id="Node000005" class="node">
<title>Node5</title>
<g id="a_Node000005"><a xlink:title=" ">
<polygon fill="#e0e0e0" stroke="#999999" points="242.38,-20 197.12,-20 197.12,0 242.38,0 242.38,-20"/>
<text text-anchor="middle" x="219.75" y="-6.5" font-family="Helvetica,sans-Serif" font-size="10.00">chrono</text>
</a>
</g>
</g>
<!-- Node1&#45;&gt;Node5 -->
<g id="edge4_Node000001_Node000005" class="edge">
<title>Node1&#45;&gt;Node5</title>
<g id="a_edge4_Node000001_Node000005"><a xlink:title=" ">
<path fill="none" stroke="#63b8ff" d="M199.23,-55.78C203.05,-47.43 207.19,-38.41 210.73,-30.67"/>
<polygon fill="#63b8ff" stroke="#63b8ff" points="213.79,-32.4 214.78,-21.85 207.43,-29.48 213.79,-32.4"/>
</a>
</g>
</g>
<!-- Node6 -->
<g id="Node000006" class="node">
<title>Node6</title>
<g id="a_Node000006"><a xlink:title=" ">
<polygon fill="#e0e0e0" stroke="#999999" points="300.75,-20 260.75,-20 260.75,0 300.75,0 300.75,-20"/>
<text text-anchor="middle" x="280.75" y="-6.5" font-family="Helvetica,sans-Serif" font-size="10.00">ctime</text>
</a>
</g>
</g>
<!-- Node1&#45;&gt;Node6 -->
<g id="edge5_Node000001_Node000006" class="edge">
<title>Node1&#45;&gt;Node6</title>
<g id="a_edge5_Node000001_Node000006"><a xlink:title=" ">
<path fill="none" stroke="#63b8ff" d="M222.56,-55.57C234.95,-46.08 248.45,-35.74 259.32,-27.42"/>
<polygon fill="#63b8ff" stroke="#63b8ff" points="261.45,-30.19 267.26,-21.34 257.19,-24.64 261.45,-30.19"/>
</a>
</g>
</g>
<!-- Node7 -->
<g id="Node000007" class="node">
<title>Node7</title>
<g id="a_Node000007"><a xlink:title=" ">
<polygon fill="#e0e0e0" stroke="#999999" points="368.62,-20 318.88,-20 318.88,0 368.62,0 368.62,-20"/>
<text text-anchor="middle" x="343.75" y="-6.5" font-family="Helvetica,sans-Serif" font-size="10.00">iomanip</text>
</a>
</g>
</g>
<!-- Node1&#45;&gt;Node7 -->
<g id="edge6_Node000001_Node000007" class="edge">
<title>Node1&#45;&gt;Node7</title>
<g id="a_edge6_Node000001_Node000007"><a xlink:title=" ">
<path fill="none" stroke="#63b8ff" d="M246.55,-55.57C269.15,-45.21 293.95,-33.84 312.84,-25.17"/>
<polygon fill="#63b8ff" stroke="#63b8ff" points="314.21,-28.4 321.84,-21.05 311.3,-22.03 314.21,-28.4"/>
</a>
</g>
</g>
</g>
</svg>
