<?xml version="1.0" encoding="UTF-8" standalone="no"?>
<!DOCTYPE svg PUBLIC "-//W3C//DTD SVG 1.1//EN"
 "http://www.w3.org/Graphics/SVG/1.1/DTD/svg11.dtd">
<!-- Generated by graphviz version 12.1.1 (20240910.0053)
 -->
<!-- Title: D:/Engineering/Embedded_Linux/Abdulaal_Diploma/CPP_Module/OOP/Tasks/Project2/Code/Sensor.hpp Pages: 1 -->
<svg width="1272pt" height="432pt"
 viewBox="0.00 0.00 1271.75 432.00" xmlns="http://www.w3.org/2000/svg" xmlns:xlink="http://www.w3.org/1999/xlink">
<g id="graph0" class="graph" transform="scale(1 1) rotate(0) translate(4 428)">
<title>D:/Engineering/Embedded_Linux/Abdulaal_Diploma/CPP_Module/OOP/Tasks/Project2/Code/Sensor.hpp</title>
<!-- Node1 -->
<g id="Node000001" class="node">
<title>Node1</title>
<g id="a_Node000001"><a xlink:title="This is a header file for Sensor class.">
<polygon fill="#999999" stroke="#666666" points="677.75,-424 508,-424 508,-368 677.75,-368 677.75,-424"/>
<text text-anchor="start" x="516" y="-410.5" font-family="Helvetica,sans-Serif" font-size="10.00">D:/Engineering/Embedded</text>
<text text-anchor="start" x="516" y="-398.5" font-family="Helvetica,sans-Serif" font-size="10.00">_Linux/Abdulaal_Diploma</text>
<text text-anchor="start" x="516" y="-386.5" font-family="Helvetica,sans-Serif" font-size="10.00">/CPP_Module/OOP/Tasks/Project2</text>
<text text-anchor="middle" x="592.88" y="-374.5" font-family="Helvetica,sans-Serif" font-size="10.00">/Code/Sensor.hpp</text>
</a>
</g>
</g>
<!-- Node2 -->
<g id="Node000002" class="node">
<title>Node2</title>
<g id="a_Node000002"><a xlink:href="_battery___sensor_8hpp.html" target="_top" xlink:title="This is a header file for Battery_Sensor class.">
<polygon fill="white" stroke="#666666" points="357.75,-332 188,-332 188,-276 357.75,-276 357.75,-332"/>
<text text-anchor="start" x="196" y="-318.5" font-family="Helvetica,sans-Serif" font-size="10.00">D:/Engineering/Embedded</text>
<text text-anchor="start" x="196" y="-306.5" font-family="Helvetica,sans-Serif" font-size="10.00">_Linux/Abdulaal_Diploma</text>
<text text-anchor="start" x="196" y="-294.5" font-family="Helvetica,sans-Serif" font-size="10.00">/CPP_Module/OOP/Tasks/Project2</text>
<text text-anchor="middle" x="272.88" y="-282.5" font-family="Helvetica,sans-Serif" font-size="10.00">/Code/Battery_Sensor.hpp</text>
</a>
</g>
</g>
<!-- Node1&#45;&gt;Node2 -->
<g id="edge1_Node000001_Node000002" class="edge">
<title>Node1&#45;&gt;Node2</title>
<g id="a_edge1_Node000001_Node000002"><a xlink:title=" ">
<path fill="none" stroke="#63b8ff" d="M496.53,-367.9C452.52,-355.53 400.84,-340.99 358.25,-329.01"/>
<polygon fill="#63b8ff" stroke="#63b8ff" points="495.51,-371.25 506.08,-370.59 497.41,-364.51 495.51,-371.25"/>
</a>
</g>
</g>
<!-- Node8 -->
<g id="Node000008" class="node">
<title>Node8</title>
<g id="a_Node000008"><a xlink:href="_radar___sensor_8hpp.html" target="_top" xlink:title="This is a header file for Radar_Sensor class.">
<polygon fill="white" stroke="#666666" points="771.75,-332 602,-332 602,-276 771.75,-276 771.75,-332"/>
<text text-anchor="start" x="610" y="-318.5" font-family="Helvetica,sans-Serif" font-size="10.00">D:/Engineering/Embedded</text>
<text text-anchor="start" x="610" y="-306.5" font-family="Helvetica,sans-Serif" font-size="10.00">_Linux/Abdulaal_Diploma</text>
<text text-anchor="start" x="610" y="-294.5" font-family="Helvetica,sans-Serif" font-size="10.00">/CPP_Module/OOP/Tasks/Project2</text>
<text text-anchor="middle" x="686.88" y="-282.5" font-family="Helvetica,sans-Serif" font-size="10.00">/Code/Radar_Sensor.hpp</text>
</a>
</g>
</g>
<!-- Node1&#45;&gt;Node8 -->
<g id="edge8_Node000001_Node000008" class="edge">
<title>Node1&#45;&gt;Node8</title>
<g id="a_edge8_Node000001_Node000008"><a xlink:title=" ">
<path fill="none" stroke="#63b8ff" d="M629.75,-359.7C639.25,-350.6 649.33,-340.95 658.34,-332.32"/>
<polygon fill="#63b8ff" stroke="#63b8ff" points="627.48,-357.02 622.68,-366.46 632.33,-362.07 627.48,-357.02"/>
</a>
</g>
</g>
<!-- Node12 -->
<g id="Node000012" class="node">
<title>Node12</title>
<g id="a_Node000012"><a xlink:href="_speed___sensor_8hpp.html" target="_top" xlink:title="This is a header file for Speed_Sensor class.">
<polygon fill="white" stroke="#666666" points="583.75,-332 414,-332 414,-276 583.75,-276 583.75,-332"/>
<text text-anchor="start" x="422" y="-318.5" font-family="Helvetica,sans-Serif" font-size="10.00">D:/Engineering/Embedded</text>
<text text-anchor="start" x="422" y="-306.5" font-family="Helvetica,sans-Serif" font-size="10.00">_Linux/Abdulaal_Diploma</text>
<text text-anchor="start" x="422" y="-294.5" font-family="Helvetica,sans-Serif" font-size="10.00">/CPP_Module/OOP/Tasks/Project2</text>
<text text-anchor="middle" x="498.88" y="-282.5" font-family="Helvetica,sans-Serif" font-size="10.00">/Code/Speed_Sensor.hpp</text>
</a>
</g>
</g>
<!-- Node1&#45;&gt;Node12 -->
<g id="edge15_Node000001_Node000012" class="edge">
<title>Node1&#45;&gt;Node12</title>
<g id="a_edge15_Node000001_Node000012"><a xlink:title=" ">
<path fill="none" stroke="#63b8ff" d="M556,-359.7C546.5,-350.6 536.42,-340.95 527.41,-332.32"/>
<polygon fill="#63b8ff" stroke="#63b8ff" points="553.42,-362.07 563.07,-366.46 558.27,-357.02 553.42,-362.07"/>
</a>
</g>
</g>
<!-- Node14 -->
<g id="Node000014" class="node">
<title>Node14</title>
<g id="a_Node000014"><a xlink:href="_temp___sensor_8hpp.html" target="_top" xlink:title="This is a header file for Temp_Sensor class.">
<polygon fill="white" stroke="#666666" points="1036.75,-332 867,-332 867,-276 1036.75,-276 1036.75,-332"/>
<text text-anchor="start" x="875" y="-318.5" font-family="Helvetica,sans-Serif" font-size="10.00">D:/Engineering/Embedded</text>
<text text-anchor="start" x="875" y="-306.5" font-family="Helvetica,sans-Serif" font-size="10.00">_Linux/Abdulaal_Diploma</text>
<text text-anchor="start" x="875" y="-294.5" font-family="Helvetica,sans-Serif" font-size="10.00">/CPP_Module/OOP/Tasks/Project2</text>
<text text-anchor="middle" x="951.88" y="-282.5" font-family="Helvetica,sans-Serif" font-size="10.00">/Code/Temp_Sensor.hpp</text>
</a>
</g>
</g>
<!-- Node1&#45;&gt;Node14 -->
<g id="edge20_Node000001_Node000014" class="edge">
<title>Node1&#45;&gt;Node14</title>
<g id="a_edge20_Node000001_Node000014"><a xlink:title=" ">
<path fill="none" stroke="#63b8ff" d="M688.84,-370.94C744.25,-357.05 813.33,-339.73 866.79,-326.33"/>
<polygon fill="#63b8ff" stroke="#63b8ff" points="688.27,-367.48 679.42,-373.3 689.97,-374.27 688.27,-367.48"/>
</a>
</g>
</g>
<!-- Node3 -->
<g id="Node000003" class="node">
<title>Node3</title>
<g id="a_Node000003"><a xlink:href="_battery___sensor_8cpp.html" target="_top" xlink:title="This is a cpp file for Battery_Sensor class.">
<polygon fill="white" stroke="#666666" points="169.75,-240 0,-240 0,-184 169.75,-184 169.75,-240"/>
<text text-anchor="start" x="8" y="-226.5" font-family="Helvetica,sans-Serif" font-size="10.00">D:/Engineering/Embedded</text>
<text text-anchor="start" x="8" y="-214.5" font-family="Helvetica,sans-Serif" font-size="10.00">_Linux/Abdulaal_Diploma</text>
<text text-anchor="start" x="8" y="-202.5" font-family="Helvetica,sans-Serif" font-size="10.00">/CPP_Module/OOP/Tasks/Project2</text>
<text text-anchor="middle" x="84.88" y="-190.5" font-family="Helvetica,sans-Serif" font-size="10.00">/Code/Battery_Sensor.cpp</text>
</a>
</g>
</g>
<!-- Node2&#45;&gt;Node3 -->
<g id="edge2_Node000002_Node000003" class="edge">
<title>Node2&#45;&gt;Node3</title>
<g id="a_edge2_Node000002_Node000003"><a xlink:title=" ">
<path fill="none" stroke="#63b8ff" d="M205.18,-270.59C184.57,-260.73 162.13,-249.99 142.27,-240.48"/>
<polygon fill="#63b8ff" stroke="#63b8ff" points="203.55,-273.69 214.08,-274.85 206.57,-267.38 203.55,-273.69"/>
</a>
</g>
</g>
<!-- Node4 -->
<g id="Node000004" class="node">
<title>Node4</title>
<g id="a_Node000004"><a xlink:href="_diagnostics_8hpp.html" target="_top" xlink:title="This is a header file for Diagnostics class.">
<polygon fill="white" stroke="#666666" points="621.75,-240 452,-240 452,-184 621.75,-184 621.75,-240"/>
<text text-anchor="start" x="460" y="-226.5" font-family="Helvetica,sans-Serif" font-size="10.00">D:/Engineering/Embedded</text>
<text text-anchor="start" x="460" y="-214.5" font-family="Helvetica,sans-Serif" font-size="10.00">_Linux/Abdulaal_Diploma</text>
<text text-anchor="start" x="460" y="-202.5" font-family="Helvetica,sans-Serif" font-size="10.00">/CPP_Module/OOP/Tasks/Project2</text>
<text text-anchor="middle" x="536.88" y="-190.5" font-family="Helvetica,sans-Serif" font-size="10.00">/Code/Diagnostics.hpp</text>
</a>
</g>
</g>
<!-- Node2&#45;&gt;Node4 -->
<g id="edge3_Node000002_Node000004" class="edge">
<title>Node2&#45;&gt;Node4</title>
<g id="a_edge3_Node000002_Node000004"><a xlink:title=" ">
<path fill="none" stroke="#63b8ff" d="M364.38,-271.8C394.28,-261.61 427.24,-250.38 456.27,-240.48"/>
<polygon fill="#63b8ff" stroke="#63b8ff" points="363.29,-268.48 354.95,-275.02 365.55,-275.11 363.29,-268.48"/>
</a>
</g>
</g>
<!-- Node6 -->
<g id="Node000006" class="node">
<title>Node6</title>
<g id="a_Node000006"><a xlink:href="_vehicle_8hpp.html" target="_top" xlink:title="This is a header file for Vehicle class.">
<polygon fill="white" stroke="#666666" points="734.75,-148 565,-148 565,-92 734.75,-92 734.75,-148"/>
<text text-anchor="start" x="573" y="-134.5" font-family="Helvetica,sans-Serif" font-size="10.00">D:/Engineering/Embedded</text>
<text text-anchor="start" x="573" y="-122.5" font-family="Helvetica,sans-Serif" font-size="10.00">_Linux/Abdulaal_Diploma</text>
<text text-anchor="start" x="573" y="-110.5" font-family="Helvetica,sans-Serif" font-size="10.00">/CPP_Module/OOP/Tasks/Project2</text>
<text text-anchor="middle" x="649.88" y="-98.5" font-family="Helvetica,sans-Serif" font-size="10.00">/Code/Vehicle.hpp</text>
</a>
</g>
</g>
<!-- Node2&#45;&gt;Node6 -->
<g id="edge7_Node000002_Node000006" class="edge">
<title>Node2&#45;&gt;Node6</title>
<g id="a_edge7_Node000002_Node000006"><a xlink:title=" ">
<path fill="none" stroke="#63b8ff" d="M233.26,-267.15C226.56,-258.94 220.58,-249.74 216.88,-240 208.03,-216.74 200.23,-202.51 216.88,-184 267.54,-127.67 481.52,-162.51 555.88,-148 558.79,-147.43 561.75,-146.81 564.73,-146.16"/>
<polygon fill="#63b8ff" stroke="#63b8ff" points="230.5,-269.31 239.74,-274.5 235.75,-264.68 230.5,-269.31"/>
</a>
</g>
</g>
<!-- Node5 -->
<g id="Node000005" class="node">
<title>Node5</title>
<g id="a_Node000005"><a xlink:href="_diagnostics_8cpp.html" target="_top" xlink:title="This is a cpp file for Diagnostics class.">
<polygon fill="white" stroke="#666666" points="546.75,-148 377,-148 377,-92 546.75,-92 546.75,-148"/>
<text text-anchor="start" x="385" y="-134.5" font-family="Helvetica,sans-Serif" font-size="10.00">D:/Engineering/Embedded</text>
<text text-anchor="start" x="385" y="-122.5" font-family="Helvetica,sans-Serif" font-size="10.00">_Linux/Abdulaal_Diploma</text>
<text text-anchor="start" x="385" y="-110.5" font-family="Helvetica,sans-Serif" font-size="10.00">/CPP_Module/OOP/Tasks/Project2</text>
<text text-anchor="middle" x="461.88" y="-98.5" font-family="Helvetica,sans-Serif" font-size="10.00">/Code/Diagnostics.cpp</text>
</a>
</g>
</g>
<!-- Node4&#45;&gt;Node5 -->
<g id="edge4_Node000004_Node000005" class="edge">
<title>Node4&#45;&gt;Node5</title>
<g id="a_edge4_Node000004_Node000005"><a xlink:title=" ">
<path fill="none" stroke="#63b8ff" d="M506.76,-174.87C499.39,-166.01 491.61,-156.69 484.64,-148.32"/>
<polygon fill="#63b8ff" stroke="#63b8ff" points="503.91,-176.9 513,-182.35 509.28,-172.42 503.91,-176.9"/>
</a>
</g>
</g>
<!-- Node4&#45;&gt;Node6 -->
<g id="edge5_Node000004_Node000006" class="edge">
<title>Node4&#45;&gt;Node6</title>
<g id="a_edge5_Node000004_Node000006"><a xlink:title=" ">
<path fill="none" stroke="#63b8ff" d="M580.16,-176.52C591.89,-167.18 604.41,-157.21 615.57,-148.32"/>
<polygon fill="#63b8ff" stroke="#63b8ff" points="578.22,-173.6 572.58,-182.57 582.58,-179.07 578.22,-173.6"/>
</a>
</g>
</g>
<!-- Node7 -->
<g id="Node000007" class="node">
<title>Node7</title>
<g id="a_Node000007"><a xlink:href="_vehicle_8cpp.html" target="_top" xlink:title="This is a header file for Vehicle class.">
<polygon fill="white" stroke="#666666" points="734.75,-56 565,-56 565,0 734.75,0 734.75,-56"/>
<text text-anchor="start" x="573" y="-42.5" font-family="Helvetica,sans-Serif" font-size="10.00">D:/Engineering/Embedded</text>
<text text-anchor="start" x="573" y="-30.5" font-family="Helvetica,sans-Serif" font-size="10.00">_Linux/Abdulaal_Diploma</text>
<text text-anchor="start" x="573" y="-18.5" font-family="Helvetica,sans-Serif" font-size="10.00">/CPP_Module/OOP/Tasks/Project2</text>
<text text-anchor="middle" x="649.88" y="-6.5" font-family="Helvetica,sans-Serif" font-size="10.00">/Code/Vehicle.cpp</text>
</a>
</g>
</g>
<!-- Node6&#45;&gt;Node7 -->
<g id="edge6_Node000006_Node000007" class="edge">
<title>Node6&#45;&gt;Node7</title>
<g id="a_edge6_Node000006_Node000007"><a xlink:title=" ">
<path fill="none" stroke="#63b8ff" d="M649.88,-80.09C649.88,-72.08 649.88,-63.81 649.88,-56.32"/>
<polygon fill="#63b8ff" stroke="#63b8ff" points="646.38,-79.99 649.88,-89.99 653.38,-79.99 646.38,-79.99"/>
</a>
</g>
</g>
<!-- Node8&#45;&gt;Node4 -->
<g id="edge12_Node000008_Node000004" class="edge">
<title>Node8&#45;&gt;Node4</title>
<g id="a_edge12_Node000008_Node000004"><a xlink:title=" ">
<path fill="none" stroke="#63b8ff" d="M631.28,-269.64C615.28,-260.04 598.01,-249.68 582.67,-240.48"/>
<polygon fill="#63b8ff" stroke="#63b8ff" points="629.38,-272.59 639.76,-274.73 632.98,-266.58 629.38,-272.59"/>
</a>
</g>
</g>
<!-- Node8&#45;&gt;Node6 -->
<g id="edge14_Node000008_Node000006" class="edge">
<title>Node8&#45;&gt;Node6</title>
<g id="a_edge14_Node000008_Node000006"><a xlink:title=" ">
<path fill="none" stroke="#63b8ff" d="M675.1,-264.55C672.85,-256.49 670.65,-248 668.88,-240 661.94,-208.75 656.51,-172.35 653.26,-148.11"/>
<polygon fill="#63b8ff" stroke="#63b8ff" points="671.72,-265.48 677.85,-274.13 678.45,-263.55 671.72,-265.48"/>
</a>
</g>
</g>
<!-- Node9 -->
<g id="Node000009" class="node">
<title>Node9</title>
<g id="a_Node000009"><a xlink:href="_adaptive___cruise___control_8hpp.html" target="_top" xlink:title="This is a header file for Adaptive_Cruise_Control class.">
<polygon fill="white" stroke="#666666" points="1038.25,-240 865.5,-240 865.5,-184 1038.25,-184 1038.25,-240"/>
<text text-anchor="start" x="873.5" y="-226.5" font-family="Helvetica,sans-Serif" font-size="10.00">D:/Engineering/Embedded</text>
<text text-anchor="start" x="873.5" y="-214.5" font-family="Helvetica,sans-Serif" font-size="10.00">_Linux/Abdulaal_Diploma</text>
<text text-anchor="start" x="873.5" y="-202.5" font-family="Helvetica,sans-Serif" font-size="10.00">/CPP_Module/OOP/Tasks/Project2</text>
<text text-anchor="middle" x="951.88" y="-190.5" font-family="Helvetica,sans-Serif" font-size="10.00">/Code/Adaptive_Cruise_Control.hpp</text>
</a>
</g>
</g>
<!-- Node8&#45;&gt;Node9 -->
<g id="edge9_Node000008_Node000009" class="edge">
<title>Node8&#45;&gt;Node9</title>
<g id="a_edge9_Node000008_Node000009"><a xlink:title=" ">
<path fill="none" stroke="#63b8ff" d="M778.33,-271.94C808.44,-261.71 841.7,-250.42 870.97,-240.48"/>
<polygon fill="#63b8ff" stroke="#63b8ff" points="777.6,-268.49 769.26,-275.02 779.85,-275.12 777.6,-268.49"/>
</a>
</g>
</g>
<!-- Node11 -->
<g id="Node000011" class="node">
<title>Node11</title>
<g id="a_Node000011"><a xlink:href="_radar___sensor_8cpp.html" target="_top" xlink:title="This is a cpp file for Radar_Sensor class.">
<polygon fill="white" stroke="#666666" points="847.75,-240 678,-240 678,-184 847.75,-184 847.75,-240"/>
<text text-anchor="start" x="686" y="-226.5" font-family="Helvetica,sans-Serif" font-size="10.00">D:/Engineering/Embedded</text>
<text text-anchor="start" x="686" y="-214.5" font-family="Helvetica,sans-Serif" font-size="10.00">_Linux/Abdulaal_Diploma</text>
<text text-anchor="start" x="686" y="-202.5" font-family="Helvetica,sans-Serif" font-size="10.00">/CPP_Module/OOP/Tasks/Project2</text>
<text text-anchor="middle" x="762.88" y="-190.5" font-family="Helvetica,sans-Serif" font-size="10.00">/Code/Radar_Sensor.cpp</text>
</a>
</g>
</g>
<!-- Node8&#45;&gt;Node11 -->
<g id="edge13_Node000008_Node000011" class="edge">
<title>Node8&#45;&gt;Node11</title>
<g id="a_edge13_Node000008_Node000011"><a xlink:title=" ">
<path fill="none" stroke="#63b8ff" d="M717.39,-266.87C724.86,-258.01 732.74,-248.69 739.8,-240.32"/>
<polygon fill="#63b8ff" stroke="#63b8ff" points="714.84,-264.45 711.07,-274.35 720.19,-268.97 714.84,-264.45"/>
</a>
</g>
</g>
<!-- Node9&#45;&gt;Node6 -->
<g id="edge11_Node000009_Node000006" class="edge">
<title>Node9&#45;&gt;Node6</title>
<g id="a_edge11_Node000009_Node000006"><a xlink:title=" ">
<path fill="none" stroke="#63b8ff" d="M854.63,-182.02C816.16,-170.56 772.33,-157.49 735.12,-146.41"/>
<polygon fill="#63b8ff" stroke="#63b8ff" points="853.3,-185.28 863.88,-184.78 855.3,-178.57 853.3,-185.28"/>
</a>
</g>
</g>
<!-- Node10 -->
<g id="Node000010" class="node">
<title>Node10</title>
<g id="a_Node000010"><a xlink:href="_adaptive___cruise___control_8cpp.html" target="_top" xlink:title="This is a cpp file for Adaptive_Cruise_Control class.">
<polygon fill="white" stroke="#666666" points="1038.25,-148 865.5,-148 865.5,-92 1038.25,-92 1038.25,-148"/>
<text text-anchor="start" x="873.5" y="-134.5" font-family="Helvetica,sans-Serif" font-size="10.00">D:/Engineering/Embedded</text>
<text text-anchor="start" x="873.5" y="-122.5" font-family="Helvetica,sans-Serif" font-size="10.00">_Linux/Abdulaal_Diploma</text>
<text text-anchor="start" x="873.5" y="-110.5" font-family="Helvetica,sans-Serif" font-size="10.00">/CPP_Module/OOP/Tasks/Project2</text>
<text text-anchor="middle" x="951.88" y="-98.5" font-family="Helvetica,sans-Serif" font-size="10.00">/Code/Adaptive_Cruise_Control.cpp</text>
</a>
</g>
</g>
<!-- Node9&#45;&gt;Node10 -->
<g id="edge10_Node000009_Node000010" class="edge">
<title>Node9&#45;&gt;Node10</title>
<g id="a_edge10_Node000009_Node000010"><a xlink:title=" ">
<path fill="none" stroke="#63b8ff" d="M951.88,-172.09C951.88,-164.08 951.88,-155.81 951.88,-148.32"/>
<polygon fill="#63b8ff" stroke="#63b8ff" points="948.38,-171.99 951.88,-181.99 955.38,-171.99 948.38,-171.99"/>
</a>
</g>
</g>
<!-- Node12&#45;&gt;Node4 -->
<g id="edge17_Node000012_Node000004" class="edge">
<title>Node12&#45;&gt;Node4</title>
<g id="a_edge17_Node000012_Node000004"><a xlink:title=" ">
<path fill="none" stroke="#63b8ff" d="M514.95,-264.92C518.44,-256.66 522.07,-248.08 525.34,-240.32"/>
<polygon fill="#63b8ff" stroke="#63b8ff" points="511.74,-263.54 511.07,-274.11 518.19,-266.26 511.74,-263.54"/>
</a>
</g>
</g>
<!-- Node12&#45;&gt;Node6 -->
<g id="edge19_Node000012_Node000006" class="edge">
<title>Node12&#45;&gt;Node6</title>
<g id="a_edge19_Node000012_Node000006"><a xlink:title=" ">
<path fill="none" stroke="#63b8ff" d="M459.26,-267.15C452.56,-258.94 446.58,-249.74 442.88,-240 434.03,-216.74 428.06,-204 442.88,-184 444.86,-181.32 508.56,-162.16 564.76,-145.67"/>
<polygon fill="#63b8ff" stroke="#63b8ff" points="456.5,-269.31 465.74,-274.5 461.75,-264.68 456.5,-269.31"/>
</a>
</g>
</g>
<!-- Node12&#45;&gt;Node9 -->
<g id="edge16_Node000012_Node000009" class="edge">
<title>Node12&#45;&gt;Node9</title>
<g id="a_edge16_Node000012_Node000009"><a xlink:title=" ">
<path fill="none" stroke="#63b8ff" d="M595.12,-275.67C710.78,-252.32 744.47,-263.51 856.88,-240 859.56,-239.44 862.28,-238.84 865.02,-238.22"/>
<polygon fill="#63b8ff" stroke="#63b8ff" points="594.61,-272.2 585.53,-277.65 596.03,-279.05 594.61,-272.2"/>
</a>
</g>
</g>
<!-- Node13 -->
<g id="Node000013" class="node">
<title>Node13</title>
<g id="a_Node000013"><a xlink:href="_speed___sensor_8cpp.html" target="_top" xlink:title="This is a cpp file for Speed_Sensor class.">
<polygon fill="white" stroke="#666666" points="395.75,-240 226,-240 226,-184 395.75,-184 395.75,-240"/>
<text text-anchor="start" x="234" y="-226.5" font-family="Helvetica,sans-Serif" font-size="10.00">D:/Engineering/Embedded</text>
<text text-anchor="start" x="234" y="-214.5" font-family="Helvetica,sans-Serif" font-size="10.00">_Linux/Abdulaal_Diploma</text>
<text text-anchor="start" x="234" y="-202.5" font-family="Helvetica,sans-Serif" font-size="10.00">/CPP_Module/OOP/Tasks/Project2</text>
<text text-anchor="middle" x="310.88" y="-190.5" font-family="Helvetica,sans-Serif" font-size="10.00">/Code/Speed_Sensor.cpp</text>
</a>
</g>
</g>
<!-- Node12&#45;&gt;Node13 -->
<g id="edge18_Node000012_Node000013" class="edge">
<title>Node12&#45;&gt;Node13</title>
<g id="a_edge18_Node000012_Node000013"><a xlink:title=" ">
<path fill="none" stroke="#63b8ff" d="M431.18,-270.59C410.57,-260.73 388.13,-249.99 368.27,-240.48"/>
<polygon fill="#63b8ff" stroke="#63b8ff" points="429.55,-273.69 440.08,-274.85 432.57,-267.38 429.55,-273.69"/>
</a>
</g>
</g>
<!-- Node14&#45;&gt;Node4 -->
<g id="edge22_Node000014_Node000004" class="edge">
<title>Node14&#45;&gt;Node4</title>
<g id="a_edge22_Node000014_Node000004"><a xlink:title=" ">
<path fill="none" stroke="#63b8ff" d="M855.52,-282.1C784.88,-266.78 689.85,-246.18 622,-231.46"/>
<polygon fill="#63b8ff" stroke="#63b8ff" points="854.65,-285.5 865.16,-284.19 856.13,-278.65 854.65,-285.5"/>
</a>
</g>
</g>
<!-- Node14&#45;&gt;Node6 -->
<g id="edge24_Node000014_Node000006" class="edge">
<title>Node14&#45;&gt;Node6</title>
<g id="a_edge24_Node000014_Node000006"><a xlink:title=" ">
<path fill="none" stroke="#63b8ff" d="M1021.47,-269.04C1031.68,-260.96 1040.79,-251.33 1046.88,-240 1058.65,-218.07 1063.04,-202.93 1046.88,-184 1036.79,-172.19 848.8,-146.35 735.17,-131.69"/>
<polygon fill="#63b8ff" stroke="#63b8ff" points="1019.51,-266.13 1013.48,-274.84 1023.63,-271.8 1019.51,-266.13"/>
</a>
</g>
</g>
<!-- Node14&#45;&gt;Node9 -->
<g id="edge21_Node000014_Node000009" class="edge">
<title>Node14&#45;&gt;Node9</title>
<g id="a_edge21_Node000014_Node000009"><a xlink:title=" ">
<path fill="none" stroke="#63b8ff" d="M951.88,-264.09C951.88,-256.08 951.88,-247.81 951.88,-240.32"/>
<polygon fill="#63b8ff" stroke="#63b8ff" points="948.38,-263.99 951.88,-273.99 955.38,-263.99 948.38,-263.99"/>
</a>
</g>
</g>
<!-- Node15 -->
<g id="Node000015" class="node">
<title>Node15</title>
<g id="a_Node000015"><a xlink:href="_temp___sensor_8cpp.html" target="_top" xlink:title="This is a cpp file for Temp_Sensor class.">
<polygon fill="white" stroke="#666666" points="1263.75,-240 1094,-240 1094,-184 1263.75,-184 1263.75,-240"/>
<text text-anchor="start" x="1102" y="-226.5" font-family="Helvetica,sans-Serif" font-size="10.00">D:/Engineering/Embedded</text>
<text text-anchor="start" x="1102" y="-214.5" font-family="Helvetica,sans-Serif" font-size="10.00">_Linux/Abdulaal_Diploma</text>
<text text-anchor="start" x="1102" y="-202.5" font-family="Helvetica,sans-Serif" font-size="10.00">/CPP_Module/OOP/Tasks/Project2</text>
<text text-anchor="middle" x="1178.88" y="-190.5" font-family="Helvetica,sans-Serif" font-size="10.00">/Code/Temp_Sensor.cpp</text>
</a>
</g>
</g>
<!-- Node14&#45;&gt;Node15 -->
<g id="edge23_Node000014_Node000015" class="edge">
<title>Node14&#45;&gt;Node15</title>
<g id="a_edge23_Node000014_Node000015"><a xlink:title=" ">
<path fill="none" stroke="#63b8ff" d="M1031.91,-271.27C1057.25,-261.22 1085.04,-250.2 1109.57,-240.48"/>
<polygon fill="#63b8ff" stroke="#63b8ff" points="1030.63,-268.01 1022.62,-274.95 1033.21,-274.52 1030.63,-268.01"/>
</a>
</g>
</g>
</g>
</svg>
