<?xml version="1.0" encoding="UTF-8" standalone="no"?>
<!DOCTYPE svg PUBLIC "-//W3C//DTD SVG 1.1//EN"
 "http://www.w3.org/Graphics/SVG/1.1/DTD/svg11.dtd">
<!-- Generated by graphviz version 12.1.1 (20240910.0053)
 -->
<!-- Title: D:/Engineering/Embedded_Linux/Abdulaal_Diploma/CPP_Module/OOP/Tasks/Project2/Code/Speed_Sensor.hpp Pages: 1 -->
<svg width="669pt" height="340pt"
 viewBox="0.00 0.00 669.25 340.00" xmlns="http://www.w3.org/2000/svg" xmlns:xlink="http://www.w3.org/1999/xlink">
<g id="graph0" class="graph" transform="scale(1 1) rotate(0) translate(4 336)">
<title>D:/Engineering/Embedded_Linux/Abdulaal_Diploma/CPP_Module/OOP/Tasks/Project2/Code/Speed_Sensor.hpp</title>
<!-- Node1 -->
<g id="Node000001" class="node">
<title>Node1</title>
<g id="a_Node000001"><a xlink:title="This is a header file for Speed_Sensor class.">
<polygon fill="#999999" stroke="#666666" points="416.25,-332 246.5,-332 246.5,-276 416.25,-276 416.25,-332"/>
<text text-anchor="start" x="254.5" y="-318.5" font-family="Helvetica,sans-Serif" font-size="10.00">D:/Engineering/Embedded</text>
<text text-anchor="start" x="254.5" y="-306.5" font-family="Helvetica,sans-Serif" font-size="10.00">_Linux/Abdulaal_Diploma</text>
<text text-anchor="start" x="254.5" y="-294.5" font-family="Helvetica,sans-Serif" font-size="10.00">/CPP_Module/OOP/Tasks/Project2</text>
<text text-anchor="middle" x="331.38" y="-282.5" font-family="Helvetica,sans-Serif" font-size="10.00">/Code/Speed_Sensor.hpp</text>
</a>
</g>
</g>
<!-- Node2 -->
<g id="Node000002" class="node">
<title>Node2</title>
<g id="a_Node000002"><a xlink:href="_adaptive___cruise___control_8hpp.html" target="_top" xlink:title="This is a header file for Adaptive_Cruise_Control class.">
<polygon fill="white" stroke="#666666" points="247.75,-240 75,-240 75,-184 247.75,-184 247.75,-240"/>
<text text-anchor="start" x="83" y="-226.5" font-family="Helvetica,sans-Serif" font-size="10.00">D:/Engineering/Embedded</text>
<text text-anchor="start" x="83" y="-214.5" font-family="Helvetica,sans-Serif" font-size="10.00">_Linux/Abdulaal_Diploma</text>
<text text-anchor="start" x="83" y="-202.5" font-family="Helvetica,sans-Serif" font-size="10.00">/CPP_Module/OOP/Tasks/Project2</text>
<text text-anchor="middle" x="161.38" y="-190.5" font-family="Helvetica,sans-Serif" font-size="10.00">/Code/Adaptive_Cruise_Control.hpp</text>
</a>
</g>
</g>
<!-- Node1&#45;&gt;Node2 -->
<g id="edge1_Node000001_Node000002" class="edge">
<title>Node1&#45;&gt;Node2</title>
<g id="a_edge1_Node000001_Node000002"><a xlink:title=" ">
<path fill="none" stroke="#63b8ff" d="M269.4,-270.19C250.97,-260.43 230.99,-249.86 213.28,-240.48"/>
<polygon fill="#63b8ff" stroke="#63b8ff" points="267.63,-273.21 278.11,-274.8 270.91,-267.03 267.63,-273.21"/>
</a>
</g>
</g>
<!-- Node4 -->
<g id="Node000004" class="node">
<title>Node4</title>
<g id="a_Node000004"><a xlink:href="_vehicle_8hpp.html" target="_top" xlink:title="This is a header file for Vehicle class.">
<polygon fill="white" stroke="#666666" points="360.25,-148 190.5,-148 190.5,-92 360.25,-92 360.25,-148"/>
<text text-anchor="start" x="198.5" y="-134.5" font-family="Helvetica,sans-Serif" font-size="10.00">D:/Engineering/Embedded</text>
<text text-anchor="start" x="198.5" y="-122.5" font-family="Helvetica,sans-Serif" font-size="10.00">_Linux/Abdulaal_Diploma</text>
<text text-anchor="start" x="198.5" y="-110.5" font-family="Helvetica,sans-Serif" font-size="10.00">/CPP_Module/OOP/Tasks/Project2</text>
<text text-anchor="middle" x="275.38" y="-98.5" font-family="Helvetica,sans-Serif" font-size="10.00">/Code/Vehicle.hpp</text>
</a>
</g>
</g>
<!-- Node1&#45;&gt;Node4 -->
<g id="edge9_Node000001_Node000004" class="edge">
<title>Node1&#45;&gt;Node4</title>
<g id="a_edge9_Node000001_Node000004"><a xlink:title=" ">
<path fill="none" stroke="#63b8ff" d="M306.52,-265.88C301.88,-257.64 297.51,-248.74 294.38,-240 283.49,-209.68 278.82,-172.77 276.84,-148.18"/>
<polygon fill="#63b8ff" stroke="#63b8ff" points="303.38,-267.44 311.48,-274.26 309.4,-263.87 303.38,-267.44"/>
</a>
</g>
</g>
<!-- Node6 -->
<g id="Node000006" class="node">
<title>Node6</title>
<g id="a_Node000006"><a xlink:href="_diagnostics_8hpp.html" target="_top" xlink:title="This is a header file for Diagnostics class.">
<polygon fill="white" stroke="#666666" points="473.25,-240 303.5,-240 303.5,-184 473.25,-184 473.25,-240"/>
<text text-anchor="start" x="311.5" y="-226.5" font-family="Helvetica,sans-Serif" font-size="10.00">D:/Engineering/Embedded</text>
<text text-anchor="start" x="311.5" y="-214.5" font-family="Helvetica,sans-Serif" font-size="10.00">_Linux/Abdulaal_Diploma</text>
<text text-anchor="start" x="311.5" y="-202.5" font-family="Helvetica,sans-Serif" font-size="10.00">/CPP_Module/OOP/Tasks/Project2</text>
<text text-anchor="middle" x="388.38" y="-190.5" font-family="Helvetica,sans-Serif" font-size="10.00">/Code/Diagnostics.hpp</text>
</a>
</g>
</g>
<!-- Node1&#45;&gt;Node6 -->
<g id="edge5_Node000001_Node000006" class="edge">
<title>Node1&#45;&gt;Node6</title>
<g id="a_edge5_Node000001_Node000006"><a xlink:title=" ">
<path fill="none" stroke="#63b8ff" d="M354.79,-266.04C360.23,-257.43 365.94,-248.42 371.07,-240.32"/>
<polygon fill="#63b8ff" stroke="#63b8ff" points="351.99,-263.91 349.6,-274.23 357.9,-267.65 351.99,-263.91"/>
</a>
</g>
</g>
<!-- Node8 -->
<g id="Node000008" class="node">
<title>Node8</title>
<g id="a_Node000008"><a xlink:href="_speed___sensor_8cpp.html" target="_top" xlink:title="This is a cpp file for Speed_Sensor class.">
<polygon fill="white" stroke="#666666" points="661.25,-240 491.5,-240 491.5,-184 661.25,-184 661.25,-240"/>
<text text-anchor="start" x="499.5" y="-226.5" font-family="Helvetica,sans-Serif" font-size="10.00">D:/Engineering/Embedded</text>
<text text-anchor="start" x="499.5" y="-214.5" font-family="Helvetica,sans-Serif" font-size="10.00">_Linux/Abdulaal_Diploma</text>
<text text-anchor="start" x="499.5" y="-202.5" font-family="Helvetica,sans-Serif" font-size="10.00">/CPP_Module/OOP/Tasks/Project2</text>
<text text-anchor="middle" x="576.38" y="-190.5" font-family="Helvetica,sans-Serif" font-size="10.00">/Code/Speed_Sensor.cpp</text>
</a>
</g>
</g>
<!-- Node1&#45;&gt;Node8 -->
<g id="edge8_Node000001_Node000008" class="edge">
<title>Node1&#45;&gt;Node8</title>
<g id="a_edge8_Node000001_Node000008"><a xlink:title=" ">
<path fill="none" stroke="#63b8ff" d="M416.66,-271.67C444.31,-261.51 474.75,-250.33 501.57,-240.48"/>
<polygon fill="#63b8ff" stroke="#63b8ff" points="415.81,-268.25 407.64,-274.99 418.23,-274.82 415.81,-268.25"/>
</a>
</g>
</g>
<!-- Node3 -->
<g id="Node000003" class="node">
<title>Node3</title>
<g id="a_Node000003"><a xlink:href="_adaptive___cruise___control_8cpp.html" target="_top" xlink:title="This is a cpp file for Adaptive_Cruise_Control class.">
<polygon fill="white" stroke="#666666" points="172.75,-148 0,-148 0,-92 172.75,-92 172.75,-148"/>
<text text-anchor="start" x="8" y="-134.5" font-family="Helvetica,sans-Serif" font-size="10.00">D:/Engineering/Embedded</text>
<text text-anchor="start" x="8" y="-122.5" font-family="Helvetica,sans-Serif" font-size="10.00">_Linux/Abdulaal_Diploma</text>
<text text-anchor="start" x="8" y="-110.5" font-family="Helvetica,sans-Serif" font-size="10.00">/CPP_Module/OOP/Tasks/Project2</text>
<text text-anchor="middle" x="86.38" y="-98.5" font-family="Helvetica,sans-Serif" font-size="10.00">/Code/Adaptive_Cruise_Control.cpp</text>
</a>
</g>
</g>
<!-- Node2&#45;&gt;Node3 -->
<g id="edge2_Node000002_Node000003" class="edge">
<title>Node2&#45;&gt;Node3</title>
<g id="a_edge2_Node000002_Node000003"><a xlink:title=" ">
<path fill="none" stroke="#63b8ff" d="M131.26,-174.87C123.89,-166.01 116.11,-156.69 109.14,-148.32"/>
<polygon fill="#63b8ff" stroke="#63b8ff" points="128.41,-176.9 137.5,-182.35 133.78,-172.42 128.41,-176.9"/>
</a>
</g>
</g>
<!-- Node2&#45;&gt;Node4 -->
<g id="edge3_Node000002_Node000004" class="edge">
<title>Node2&#45;&gt;Node4</title>
<g id="a_edge3_Node000002_Node000004"><a xlink:title=" ">
<path fill="none" stroke="#63b8ff" d="M205.05,-176.52C216.87,-167.18 229.51,-157.21 240.77,-148.32"/>
<polygon fill="#63b8ff" stroke="#63b8ff" points="203.07,-173.63 197.39,-182.57 207.4,-179.12 203.07,-173.63"/>
</a>
</g>
</g>
<!-- Node5 -->
<g id="Node000005" class="node">
<title>Node5</title>
<g id="a_Node000005"><a xlink:href="_vehicle_8cpp.html" target="_top" xlink:title="This is a header file for Vehicle class.">
<polygon fill="white" stroke="#666666" points="360.25,-56 190.5,-56 190.5,0 360.25,0 360.25,-56"/>
<text text-anchor="start" x="198.5" y="-42.5" font-family="Helvetica,sans-Serif" font-size="10.00">D:/Engineering/Embedded</text>
<text text-anchor="start" x="198.5" y="-30.5" font-family="Helvetica,sans-Serif" font-size="10.00">_Linux/Abdulaal_Diploma</text>
<text text-anchor="start" x="198.5" y="-18.5" font-family="Helvetica,sans-Serif" font-size="10.00">/CPP_Module/OOP/Tasks/Project2</text>
<text text-anchor="middle" x="275.38" y="-6.5" font-family="Helvetica,sans-Serif" font-size="10.00">/Code/Vehicle.cpp</text>
</a>
</g>
</g>
<!-- Node4&#45;&gt;Node5 -->
<g id="edge4_Node000004_Node000005" class="edge">
<title>Node4&#45;&gt;Node5</title>
<g id="a_edge4_Node000004_Node000005"><a xlink:title=" ">
<path fill="none" stroke="#63b8ff" d="M275.38,-80.09C275.38,-72.08 275.38,-63.81 275.38,-56.32"/>
<polygon fill="#63b8ff" stroke="#63b8ff" points="271.88,-79.99 275.38,-89.99 278.88,-79.99 271.88,-79.99"/>
</a>
</g>
</g>
<!-- Node6&#45;&gt;Node4 -->
<g id="edge7_Node000006_Node000004" class="edge">
<title>Node6&#45;&gt;Node4</title>
<g id="a_edge7_Node000006_Node000004"><a xlink:title=" ">
<path fill="none" stroke="#63b8ff" d="M345.09,-176.52C333.36,-167.18 320.84,-157.21 309.68,-148.32"/>
<polygon fill="#63b8ff" stroke="#63b8ff" points="342.67,-179.07 352.67,-182.57 347.03,-173.6 342.67,-179.07"/>
</a>
</g>
</g>
<!-- Node7 -->
<g id="Node000007" class="node">
<title>Node7</title>
<g id="a_Node000007"><a xlink:href="_diagnostics_8cpp.html" target="_top" xlink:title="This is a cpp file for Diagnostics class.">
<polygon fill="white" stroke="#666666" points="548.25,-148 378.5,-148 378.5,-92 548.25,-92 548.25,-148"/>
<text text-anchor="start" x="386.5" y="-134.5" font-family="Helvetica,sans-Serif" font-size="10.00">D:/Engineering/Embedded</text>
<text text-anchor="start" x="386.5" y="-122.5" font-family="Helvetica,sans-Serif" font-size="10.00">_Linux/Abdulaal_Diploma</text>
<text text-anchor="start" x="386.5" y="-110.5" font-family="Helvetica,sans-Serif" font-size="10.00">/CPP_Module/OOP/Tasks/Project2</text>
<text text-anchor="middle" x="463.38" y="-98.5" font-family="Helvetica,sans-Serif" font-size="10.00">/Code/Diagnostics.cpp</text>
</a>
</g>
</g>
<!-- Node6&#45;&gt;Node7 -->
<g id="edge6_Node000006_Node000007" class="edge">
<title>Node6&#45;&gt;Node7</title>
<g id="a_edge6_Node000006_Node000007"><a xlink:title=" ">
<path fill="none" stroke="#63b8ff" d="M418.49,-174.87C425.86,-166.01 433.64,-156.69 440.61,-148.32"/>
<polygon fill="#63b8ff" stroke="#63b8ff" points="415.97,-172.42 412.25,-182.35 421.34,-176.9 415.97,-172.42"/>
</a>
</g>
</g>
</g>
</svg>
