<?xml version="1.0" encoding="UTF-8" standalone="no"?>
<!DOCTYPE svg PUBLIC "-//W3C//DTD SVG 1.1//EN"
 "http://www.w3.org/Graphics/SVG/1.1/DTD/svg11.dtd">
<!-- Generated by graphviz version 12.1.1 (20240910.0053)
 -->
<!-- Title: D:/Engineering/Embedded_Linux/Abdulaal_Diploma/CPP_Module/OOP/Tasks/Project2/Code/Temp_Sensor.cpp Pages: 1 -->
<svg width="178pt" height="232pt"
 viewBox="0.00 0.00 177.75 232.00" xmlns="http://www.w3.org/2000/svg" xmlns:xlink="http://www.w3.org/1999/xlink">
<g id="graph0" class="graph" transform="scale(1 1) rotate(0) translate(4 228)">
<title>D:/Engineering/Embedded_Linux/Abdulaal_Diploma/CPP_Module/OOP/Tasks/Project2/Code/Temp_Sensor.cpp</title>
<!-- Node1 -->
<g id="Node000001" class="node">
<title>Node1</title>
<g id="a_Node000001"><a xlink:title="This is a cpp file for Temp_Sensor class.">
<polygon fill="#999999" stroke="#666666" points="169.75,-224 0,-224 0,-168 169.75,-168 169.75,-224"/>
<text text-anchor="start" x="8" y="-210.5" font-family="Helvetica,sans-Serif" font-size="10.00">D:/Engineering/Embedded</text>
<text text-anchor="start" x="8" y="-198.5" font-family="Helvetica,sans-Serif" font-size="10.00">_Linux/Abdulaal_Diploma</text>
<text text-anchor="start" x="8" y="-186.5" font-family="Helvetica,sans-Serif" font-size="10.00">/CPP_Module/OOP/Tasks/Project2</text>
<text text-anchor="middle" x="84.88" y="-174.5" font-family="Helvetica,sans-Serif" font-size="10.00">/Code/Temp_Sensor.cpp</text>
</a>
</g>
</g>
<!-- Node2 -->
<g id="Node000002" class="node">
<title>Node2</title>
<g id="a_Node000002"><a xlink:href="_temp___sensor_8hpp.html" target="_top" xlink:title="This is a header file for Temp_Sensor class.">
<polygon fill="white" stroke="#666666" points="132.25,-132 37.5,-132 37.5,-112 132.25,-112 132.25,-132"/>
<text text-anchor="middle" x="84.88" y="-118.5" font-family="Helvetica,sans-Serif" font-size="10.00">Temp_Sensor.hpp</text>
</a>
</g>
</g>
<!-- Node1&#45;&gt;Node2 -->
<g id="edge1_Node000001_Node000002" class="edge">
<title>Node1&#45;&gt;Node2</title>
<g id="a_edge1_Node000001_Node000002"><a xlink:title=" ">
<path fill="none" stroke="#63b8ff" d="M84.88,-167.78C84.88,-159.82 84.88,-151.25 84.88,-143.76"/>
<polygon fill="#63b8ff" stroke="#63b8ff" points="88.38,-143.99 84.88,-133.99 81.38,-143.99 88.38,-143.99"/>
</a>
</g>
</g>
<!-- Node3 -->
<g id="Node000003" class="node">
<title>Node3</title>
<g id="a_Node000003"><a xlink:href="_sensor_8hpp.html" target="_top" xlink:title="This is a header file for Sensor class.">
<polygon fill="white" stroke="#666666" points="117.62,-76 52.12,-76 52.12,-56 117.62,-56 117.62,-76"/>
<text text-anchor="middle" x="84.88" y="-62.5" font-family="Helvetica,sans-Serif" font-size="10.00">Sensor.hpp</text>
</a>
</g>
</g>
<!-- Node2&#45;&gt;Node3 -->
<g id="edge2_Node000002_Node000003" class="edge">
<title>Node2&#45;&gt;Node3</title>
<g id="a_edge2_Node000002_Node000003"><a xlink:title=" ">
<path fill="none" stroke="#63b8ff" d="M84.88,-111.59C84.88,-105.01 84.88,-95.96 84.88,-87.73"/>
<polygon fill="#63b8ff" stroke="#63b8ff" points="88.38,-87.81 84.88,-77.81 81.38,-87.81 88.38,-87.81"/>
</a>
</g>
</g>
<!-- Node4 -->
<g id="Node000004" class="node">
<title>Node4</title>
<g id="a_Node000004"><a xlink:title=" ">
<polygon fill="#e0e0e0" stroke="#999999" points="78.62,-20 25.12,-20 25.12,0 78.62,0 78.62,-20"/>
<text text-anchor="middle" x="51.88" y="-6.5" font-family="Helvetica,sans-Serif" font-size="10.00">iostream</text>
</a>
</g>
</g>
<!-- Node3&#45;&gt;Node4 -->
<g id="edge3_Node000003_Node000004" class="edge">
<title>Node3&#45;&gt;Node4</title>
<g id="a_edge3_Node000003_Node000004"><a xlink:title=" ">
<path fill="none" stroke="#63b8ff" d="M79.13,-55.59C74.82,-48.55 68.78,-38.67 63.49,-30"/>
<polygon fill="#63b8ff" stroke="#63b8ff" points="66.55,-28.3 58.35,-21.59 60.57,-31.95 66.55,-28.3"/>
</a>
</g>
</g>
<!-- Node5 -->
<g id="Node000005" class="node">
<title>Node5</title>
<g id="a_Node000005"><a xlink:title=" ">
<polygon fill="#e0e0e0" stroke="#999999" points="141.12,-20 96.62,-20 96.62,0 141.12,0 141.12,-20"/>
<text text-anchor="middle" x="118.88" y="-6.5" font-family="Helvetica,sans-Serif" font-size="10.00">cstdlib</text>
</a>
</g>
</g>
<!-- Node3&#45;&gt;Node5 -->
<g id="edge4_Node000003_Node000005" class="edge">
<title>Node3&#45;&gt;Node5</title>
<g id="a_edge4_Node000003_Node000005"><a xlink:title=" ">
<path fill="none" stroke="#63b8ff" d="M90.8,-55.59C95.23,-48.55 101.45,-38.67 106.91,-30"/>
<polygon fill="#63b8ff" stroke="#63b8ff" points="109.85,-31.91 112.21,-21.58 103.92,-28.18 109.85,-31.91"/>
</a>
</g>
</g>
</g>
</svg>
