<?xml version="1.0" encoding="UTF-8" standalone="no"?>
<!DOCTYPE svg PUBLIC "-//W3C//DTD SVG 1.1//EN"
 "http://www.w3.org/Graphics/SVG/1.1/DTD/svg11.dtd">
<!-- Generated by graphviz version 12.1.1 (20240910.0053)
 -->
<!-- Title: D:/Engineering/Embedded_Linux/Abdulaal_Diploma/CPP_Module/OOP/Tasks/Project2/Code/Vehicle.cpp Pages: 1 -->
<svg width="657pt" height="344pt"
 viewBox="0.00 0.00 656.75 344.00" xmlns="http://www.w3.org/2000/svg" xmlns:xlink="http://www.w3.org/1999/xlink">
<g id="graph0" class="graph" transform="scale(1 1) rotate(0) translate(4 340)">
<title>D:/Engineering/Embedded_Linux/Abdulaal_Diploma/CPP_Module/OOP/Tasks/Project2/Code/Vehicle.cpp</title>
<!-- Node1 -->
<g id="Node000001" class="node">
<title>Node1</title>
<g id="a_Node000001"><a xlink:title="This is a header file for Vehicle class.">
<polygon fill="#999999" stroke="#666666" points="394.12,-336 224.38,-336 224.38,-280 394.12,-280 394.12,-336"/>
<text text-anchor="start" x="232.38" y="-322.5" font-family="Helvetica,sans-Serif" font-size="10.00">D:/Engineering/Embedded</text>
<text text-anchor="start" x="232.38" y="-310.5" font-family="Helvetica,sans-Serif" font-size="10.00">_Linux/Abdulaal_Diploma</text>
<text text-anchor="start" x="232.38" y="-298.5" font-family="Helvetica,sans-Serif" font-size="10.00">/CPP_Module/OOP/Tasks/Project2</text>
<text text-anchor="middle" x="309.25" y="-286.5" font-family="Helvetica,sans-Serif" font-size="10.00">/Code/Vehicle.cpp</text>
</a>
</g>
</g>
<!-- Node2 -->
<g id="Node000002" class="node">
<title>Node2</title>
<g id="a_Node000002"><a xlink:href="_vehicle_8hpp.html" target="_top" xlink:title="This is a header file for Vehicle class.">
<polygon fill="white" stroke="#666666" points="342.38,-244 276.12,-244 276.12,-224 342.38,-224 342.38,-244"/>
<text text-anchor="middle" x="309.25" y="-230.5" font-family="Helvetica,sans-Serif" font-size="10.00">Vehicle.hpp</text>
</a>
</g>
</g>
<!-- Node1&#45;&gt;Node2 -->
<g id="edge1_Node000001_Node000002" class="edge">
<title>Node1&#45;&gt;Node2</title>
<g id="a_edge1_Node000001_Node000002"><a xlink:title=" ">
<path fill="none" stroke="#63b8ff" d="M309.25,-279.78C309.25,-271.82 309.25,-263.25 309.25,-255.76"/>
<polygon fill="#63b8ff" stroke="#63b8ff" points="312.75,-255.99 309.25,-245.99 305.75,-255.99 312.75,-255.99"/>
</a>
</g>
</g>
<!-- Node3 -->
<g id="Node000003" class="node">
<title>Node3</title>
<g id="a_Node000003"><a xlink:href="_speed___sensor_8hpp.html" target="_top" xlink:title="This is a header file for Speed_Sensor class.">
<polygon fill="white" stroke="#666666" points="98.5,-132 0,-132 0,-112 98.5,-112 98.5,-132"/>
<text text-anchor="middle" x="49.25" y="-118.5" font-family="Helvetica,sans-Serif" font-size="10.00">Speed_Sensor.hpp</text>
</a>
</g>
</g>
<!-- Node2&#45;&gt;Node3 -->
<g id="edge2_Node000002_Node000003" class="edge">
<title>Node2&#45;&gt;Node3</title>
<g id="a_edge2_Node000002_Node000003"><a xlink:title=" ">
<path fill="none" stroke="#63b8ff" d="M275.9,-229.67C221.37,-223.68 116.17,-209.64 86.25,-188 70.97,-176.95 61.12,-157.53 55.46,-142.78"/>
<polygon fill="#63b8ff" stroke="#63b8ff" points="58.87,-141.94 52.29,-133.64 52.26,-144.23 58.87,-141.94"/>
</a>
</g>
</g>
<!-- Node7 -->
<g id="Node000007" class="node">
<title>Node7</title>
<g id="a_Node000007"><a xlink:href="_temp___sensor_8hpp.html" target="_top" xlink:title="This is a header file for Temp_Sensor class.">
<polygon fill="white" stroke="#666666" points="326.62,-132 231.88,-132 231.88,-112 326.62,-112 326.62,-132"/>
<text text-anchor="middle" x="279.25" y="-118.5" font-family="Helvetica,sans-Serif" font-size="10.00">Temp_Sensor.hpp</text>
</a>
</g>
</g>
<!-- Node2&#45;&gt;Node7 -->
<g id="edge6_Node000002_Node000007" class="edge">
<title>Node2&#45;&gt;Node7</title>
<g id="a_edge6_Node000002_Node000007"><a xlink:title=" ">
<path fill="none" stroke="#63b8ff" d="M326.46,-223.51C346.09,-211.38 373.91,-189.39 361.25,-168 352.86,-153.83 338.26,-143.83 323.67,-136.91"/>
<polygon fill="#63b8ff" stroke="#63b8ff" points="325.11,-133.72 314.54,-133 322.36,-140.15 325.11,-133.72"/>
</a>
</g>
</g>
<!-- Node8 -->
<g id="Node000008" class="node">
<title>Node8</title>
<g id="a_Node000008"><a xlink:href="_radar___sensor_8hpp.html" target="_top" xlink:title="This is a header file for Radar_Sensor class.">
<polygon fill="white" stroke="#666666" points="213.75,-132 116.75,-132 116.75,-112 213.75,-112 213.75,-132"/>
<text text-anchor="middle" x="165.25" y="-118.5" font-family="Helvetica,sans-Serif" font-size="10.00">Radar_Sensor.hpp</text>
</a>
</g>
</g>
<!-- Node2&#45;&gt;Node8 -->
<g id="edge8_Node000002_Node000008" class="edge">
<title>Node2&#45;&gt;Node8</title>
<g id="a_edge8_Node000002_Node000008"><a xlink:title=" ">
<path fill="none" stroke="#63b8ff" d="M275.87,-230.96C221.5,-226.87 117.62,-215.56 95.25,-188 79.61,-168.73 106.17,-149.78 130.94,-137.36"/>
<polygon fill="#63b8ff" stroke="#63b8ff" points="132.4,-140.54 139.94,-133.1 129.41,-134.21 132.4,-140.54"/>
</a>
</g>
</g>
<!-- Node9 -->
<g id="Node000009" class="node">
<title>Node9</title>
<g id="a_Node000009"><a xlink:href="_battery___sensor_8hpp.html" target="_top" xlink:title="This is a header file for Battery_Sensor class.">
<polygon fill="white" stroke="#666666" points="447.38,-132 345.12,-132 345.12,-112 447.38,-112 447.38,-132"/>
<text text-anchor="middle" x="396.25" y="-118.5" font-family="Helvetica,sans-Serif" font-size="10.00">Battery_Sensor.hpp</text>
</a>
</g>
</g>
<!-- Node2&#45;&gt;Node9 -->
<g id="edge10_Node000002_Node000009" class="edge">
<title>Node2&#45;&gt;Node9</title>
<g id="a_edge10_Node000002_Node000009"><a xlink:title=" ">
<path fill="none" stroke="#63b8ff" d="M330.92,-223.64C345.98,-216.09 365.41,-204.07 377.25,-188 386.86,-174.96 391.63,-157.12 393.99,-143.43"/>
<polygon fill="#63b8ff" stroke="#63b8ff" points="397.42,-144.17 395.33,-133.78 390.49,-143.2 397.42,-144.17"/>
</a>
</g>
</g>
<!-- Node10 -->
<g id="Node000010" class="node">
<title>Node10</title>
<g id="a_Node000010"><a xlink:href="_adaptive___cruise___control_8hpp.html" target="_top" xlink:title="This is a header file for Adaptive_Cruise_Control class.">
<polygon fill="white" stroke="#666666" points="248,-188 104.5,-188 104.5,-168 248,-168 248,-188"/>
<text text-anchor="middle" x="176.25" y="-174.5" font-family="Helvetica,sans-Serif" font-size="10.00">Adaptive_Cruise_Control.hpp</text>
</a>
</g>
</g>
<!-- Node2&#45;&gt;Node10 -->
<g id="edge12_Node000002_Node000010" class="edge">
<title>Node2&#45;&gt;Node10</title>
<g id="a_edge12_Node000002_Node000010"><a xlink:title=" ">
<path fill="none" stroke="#63b8ff" d="M286.08,-223.59C265.04,-215.05 233.75,-202.35 209.95,-192.68"/>
<polygon fill="#63b8ff" stroke="#63b8ff" points="211.58,-189.57 201,-189.05 208.95,-196.05 211.58,-189.57"/>
</a>
</g>
</g>
<!-- Node11 -->
<g id="Node000011" class="node">
<title>Node11</title>
<g id="a_Node000011"><a xlink:href="_logger_8hpp.html" target="_top" xlink:title="This is a header file for Logger class.">
<polygon fill="white" stroke="#666666" points="529.25,-132 465.25,-132 465.25,-112 529.25,-112 529.25,-132"/>
<text text-anchor="middle" x="497.25" y="-118.5" font-family="Helvetica,sans-Serif" font-size="10.00">Logger.hpp</text>
</a>
</g>
</g>
<!-- Node2&#45;&gt;Node11 -->
<g id="edge29_Node000002_Node000011" class="edge">
<title>Node2&#45;&gt;Node11</title>
<g id="a_edge29_Node000002_Node000011"><a xlink:title=" ">
<path fill="none" stroke="#63b8ff" d="M328.88,-223.51C346.7,-214.74 373.58,-201.12 396.25,-188 423.58,-172.19 453.91,-152.34 474.14,-138.76"/>
<polygon fill="#63b8ff" stroke="#63b8ff" points="475.87,-141.81 482.2,-133.32 471.96,-136.01 475.87,-141.81"/>
</a>
</g>
</g>
<!-- Node17 -->
<g id="Node000017" class="node">
<title>Node17</title>
<g id="a_Node000017"><a xlink:href="_diagnostics_8hpp.html" target="_top" xlink:title="This is a header file for Diagnostics class.">
<polygon fill="white" stroke="#666666" points="352.5,-188 266,-188 266,-168 352.5,-168 352.5,-188"/>
<text text-anchor="middle" x="309.25" y="-174.5" font-family="Helvetica,sans-Serif" font-size="10.00">Diagnostics.hpp</text>
</a>
</g>
</g>
<!-- Node2&#45;&gt;Node17 -->
<g id="edge23_Node000002_Node000017" class="edge">
<title>Node2&#45;&gt;Node17</title>
<g id="a_edge23_Node000002_Node000017"><a xlink:title=" ">
<path fill="none" stroke="#63b8ff" d="M309.25,-223.59C309.25,-217.01 309.25,-207.96 309.25,-199.73"/>
<polygon fill="#63b8ff" stroke="#63b8ff" points="312.75,-199.81 309.25,-189.81 305.75,-199.81 312.75,-199.81"/>
</a>
</g>
</g>
<!-- Node4 -->
<g id="Node000004" class="node">
<title>Node4</title>
<g id="a_Node000004"><a xlink:href="_sensor_8hpp.html" target="_top" xlink:title="This is a header file for Sensor class.">
<polygon fill="white" stroke="#666666" points="296,-76 230.5,-76 230.5,-56 296,-56 296,-76"/>
<text text-anchor="middle" x="263.25" y="-62.5" font-family="Helvetica,sans-Serif" font-size="10.00">Sensor.hpp</text>
</a>
</g>
</g>
<!-- Node3&#45;&gt;Node4 -->
<g id="edge3_Node000003_Node000004" class="edge">
<title>Node3&#45;&gt;Node4</title>
<g id="a_edge3_Node000003_Node000004"><a xlink:title=" ">
<path fill="none" stroke="#63b8ff" d="M86.53,-111.59C123.47,-102.27 180.07,-87.99 219.21,-78.11"/>
<polygon fill="#63b8ff" stroke="#63b8ff" points="219.95,-81.54 228.79,-75.7 218.24,-74.75 219.95,-81.54"/>
</a>
</g>
</g>
<!-- Node5 -->
<g id="Node000005" class="node">
<title>Node5</title>
<g id="a_Node000005"><a xlink:title=" ">
<polygon fill="#e0e0e0" stroke="#999999" points="448,-20 394.5,-20 394.5,0 448,0 448,-20"/>
<text text-anchor="middle" x="421.25" y="-6.5" font-family="Helvetica,sans-Serif" font-size="10.00">iostream</text>
</a>
</g>
</g>
<!-- Node4&#45;&gt;Node5 -->
<g id="edge4_Node000004_Node000005" class="edge">
<title>Node4&#45;&gt;Node5</title>
<g id="a_edge4_Node000004_Node000005"><a xlink:title=" ">
<path fill="none" stroke="#63b8ff" d="M290.77,-55.59C316.37,-46.84 354.75,-33.73 383.26,-23.98"/>
<polygon fill="#63b8ff" stroke="#63b8ff" points="384.28,-27.33 392.61,-20.79 382.02,-20.71 384.28,-27.33"/>
</a>
</g>
</g>
<!-- Node6 -->
<g id="Node000006" class="node">
<title>Node6</title>
<g id="a_Node000006"><a xlink:title=" ">
<polygon fill="#e0e0e0" stroke="#999999" points="285.5,-20 241,-20 241,0 285.5,0 285.5,-20"/>
<text text-anchor="middle" x="263.25" y="-6.5" font-family="Helvetica,sans-Serif" font-size="10.00">cstdlib</text>
</a>
</g>
</g>
<!-- Node4&#45;&gt;Node6 -->
<g id="edge5_Node000004_Node000006" class="edge">
<title>Node4&#45;&gt;Node6</title>
<g id="a_edge5_Node000004_Node000006"><a xlink:title=" ">
<path fill="none" stroke="#63b8ff" d="M263.25,-55.59C263.25,-49.01 263.25,-39.96 263.25,-31.73"/>
<polygon fill="#63b8ff" stroke="#63b8ff" points="266.75,-31.81 263.25,-21.81 259.75,-31.81 266.75,-31.81"/>
</a>
</g>
</g>
<!-- Node7&#45;&gt;Node4 -->
<g id="edge7_Node000007_Node000004" class="edge">
<title>Node7&#45;&gt;Node4</title>
<g id="a_edge7_Node000007_Node000004"><a xlink:title=" ">
<path fill="none" stroke="#63b8ff" d="M276.46,-111.59C274.47,-104.86 271.7,-95.53 269.22,-87.15"/>
<polygon fill="#63b8ff" stroke="#63b8ff" points="272.63,-86.34 266.44,-77.75 265.92,-88.33 272.63,-86.34"/>
</a>
</g>
</g>
<!-- Node8&#45;&gt;Node4 -->
<g id="edge9_Node000008_Node000004" class="edge">
<title>Node8&#45;&gt;Node4</title>
<g id="a_edge9_Node000008_Node000004"><a xlink:title=" ">
<path fill="none" stroke="#63b8ff" d="M182.32,-111.59C197.13,-103.44 218.82,-91.48 236.02,-82"/>
<polygon fill="#63b8ff" stroke="#63b8ff" points="237.65,-85.1 244.72,-77.21 234.27,-78.97 237.65,-85.1"/>
</a>
</g>
</g>
<!-- Node9&#45;&gt;Node4 -->
<g id="edge11_Node000009_Node000004" class="edge">
<title>Node9&#45;&gt;Node4</title>
<g id="a_edge11_Node000009_Node000004"><a xlink:title=" ">
<path fill="none" stroke="#63b8ff" d="M373.08,-111.59C352.04,-103.05 320.75,-90.35 296.95,-80.68"/>
<polygon fill="#63b8ff" stroke="#63b8ff" points="298.58,-77.57 288,-77.05 295.95,-84.05 298.58,-77.57"/>
</a>
</g>
</g>
<!-- Node10&#45;&gt;Node3 -->
<g id="edge13_Node000010_Node000003" class="edge">
<title>Node10&#45;&gt;Node3</title>
<g id="a_edge13_Node000010_Node000003"><a xlink:title=" ">
<path fill="none" stroke="#63b8ff" d="M154.13,-167.59C134.22,-159.13 104.7,-146.58 82.04,-136.94"/>
<polygon fill="#63b8ff" stroke="#63b8ff" points="83.51,-133.76 72.94,-133.07 80.77,-140.21 83.51,-133.76"/>
</a>
</g>
</g>
<!-- Node10&#45;&gt;Node7 -->
<g id="edge14_Node000010_Node000007" class="edge">
<title>Node10&#45;&gt;Node7</title>
<g id="a_edge14_Node000010_Node000007"><a xlink:title=" ">
<path fill="none" stroke="#63b8ff" d="M194.19,-167.59C209.9,-159.36 232.98,-147.26 251.14,-137.74"/>
<polygon fill="#63b8ff" stroke="#63b8ff" points="252.6,-140.93 259.83,-133.18 249.35,-134.73 252.6,-140.93"/>
</a>
</g>
</g>
<!-- Node10&#45;&gt;Node8 -->
<g id="edge15_Node000010_Node000008" class="edge">
<title>Node10&#45;&gt;Node8</title>
<g id="a_edge15_Node000010_Node000008"><a xlink:title=" ">
<path fill="none" stroke="#63b8ff" d="M174.33,-167.59C172.98,-160.93 171.11,-151.75 169.41,-143.44"/>
<polygon fill="#63b8ff" stroke="#63b8ff" points="172.87,-142.88 167.45,-133.78 166.01,-144.28 172.87,-142.88"/>
</a>
</g>
</g>
<!-- Node10&#45;&gt;Node11 -->
<g id="edge16_Node000010_Node000011" class="edge">
<title>Node10&#45;&gt;Node11</title>
<g id="a_edge16_Node000010_Node000011"><a xlink:title=" ">
<path fill="none" stroke="#63b8ff" d="M242.06,-167.5C296.36,-159.42 375.69,-147.05 454.01,-132.34"/>
<polygon fill="#63b8ff" stroke="#63b8ff" points="454.4,-135.83 463.57,-130.53 453.09,-128.95 454.4,-135.83"/>
</a>
</g>
</g>
<!-- Node11&#45;&gt;Node5 -->
<g id="edge17_Node000011_Node000005" class="edge">
<title>Node11&#45;&gt;Node5</title>
<g id="a_edge17_Node000011_Node000005"><a xlink:title=" ">
<path fill="none" stroke="#63b8ff" d="M499.34,-111.85C501.86,-98.54 504.57,-73.52 494.25,-56 486.18,-42.3 472.14,-32.2 458.52,-25.08"/>
<polygon fill="#63b8ff" stroke="#63b8ff" points="460.19,-22 449.65,-20.86 457.18,-28.32 460.19,-22"/>
</a>
</g>
</g>
<!-- Node12 -->
<g id="Node000012" class="node">
<title>Node12</title>
<g id="a_Node000012"><a xlink:title=" ">
<polygon fill="#e0e0e0" stroke="#999999" points="581.25,-76 541.25,-76 541.25,-56 581.25,-56 581.25,-76"/>
<text text-anchor="middle" x="561.25" y="-62.5" font-family="Helvetica,sans-Serif" font-size="10.00">string</text>
</a>
</g>
</g>
<!-- Node11&#45;&gt;Node12 -->
<g id="edge18_Node000011_Node000012" class="edge">
<title>Node11&#45;&gt;Node12</title>
<g id="a_edge18_Node000011_Node000012"><a xlink:title=" ">
<path fill="none" stroke="#63b8ff" d="M508.4,-111.59C517.58,-103.85 530.8,-92.69 541.73,-83.47"/>
<polygon fill="#63b8ff" stroke="#63b8ff" points="543.69,-86.4 549.07,-77.27 539.17,-81.05 543.69,-86.4"/>
</a>
</g>
</g>
<!-- Node13 -->
<g id="Node000013" class="node">
<title>Node13</title>
<g id="a_Node000013"><a xlink:title=" ">
<polygon fill="#e0e0e0" stroke="#999999" points="648.75,-76 599.75,-76 599.75,-56 648.75,-56 648.75,-76"/>
<text text-anchor="middle" x="624.25" y="-62.5" font-family="Helvetica,sans-Serif" font-size="10.00">fstream</text>
</a>
</g>
</g>
<!-- Node11&#45;&gt;Node13 -->
<g id="edge19_Node000011_Node000013" class="edge">
<title>Node11&#45;&gt;Node13</title>
<g id="a_edge19_Node000011_Node000013"><a xlink:title=" ">
<path fill="none" stroke="#63b8ff" d="M519.37,-111.59C539.28,-103.13 568.8,-90.58 591.46,-80.94"/>
<polygon fill="#63b8ff" stroke="#63b8ff" points="592.73,-84.21 600.56,-77.07 589.99,-77.76 592.73,-84.21"/>
</a>
</g>
</g>
<!-- Node14 -->
<g id="Node000014" class="node">
<title>Node14</title>
<g id="a_Node000014"><a xlink:title=" ">
<polygon fill="#e0e0e0" stroke="#999999" points="358.88,-76 313.62,-76 313.62,-56 358.88,-56 358.88,-76"/>
<text text-anchor="middle" x="336.25" y="-62.5" font-family="Helvetica,sans-Serif" font-size="10.00">chrono</text>
</a>
</g>
</g>
<!-- Node11&#45;&gt;Node14 -->
<g id="edge20_Node000011_Node000014" class="edge">
<title>Node11&#45;&gt;Node14</title>
<g id="a_edge20_Node000011_Node000014"><a xlink:title=" ">
<path fill="none" stroke="#63b8ff" d="M469.21,-111.59C441.57,-102.32 399.31,-88.15 369.88,-78.28"/>
<polygon fill="#63b8ff" stroke="#63b8ff" points="371.31,-75.07 360.72,-75.21 369.09,-81.71 371.31,-75.07"/>
</a>
</g>
</g>
<!-- Node15 -->
<g id="Node000015" class="node">
<title>Node15</title>
<g id="a_Node000015"><a xlink:title=" ">
<polygon fill="#e0e0e0" stroke="#999999" points="417.25,-76 377.25,-76 377.25,-56 417.25,-56 417.25,-76"/>
<text text-anchor="middle" x="397.25" y="-62.5" font-family="Helvetica,sans-Serif" font-size="10.00">ctime</text>
</a>
</g>
</g>
<!-- Node11&#45;&gt;Node15 -->
<g id="edge21_Node000011_Node000015" class="edge">
<title>Node11&#45;&gt;Node15</title>
<g id="a_edge21_Node000011_Node000015"><a xlink:title=" ">
<path fill="none" stroke="#63b8ff" d="M479.83,-111.59C464.58,-103.36 442.17,-91.26 424.54,-81.74"/>
<polygon fill="#63b8ff" stroke="#63b8ff" points="426.6,-78.87 416.14,-77.2 423.27,-85.03 426.6,-78.87"/>
</a>
</g>
</g>
<!-- Node16 -->
<g id="Node000016" class="node">
<title>Node16</title>
<g id="a_Node000016"><a xlink:title=" ">
<polygon fill="#e0e0e0" stroke="#999999" points="485.12,-76 435.38,-76 435.38,-56 485.12,-56 485.12,-76"/>
<text text-anchor="middle" x="460.25" y="-62.5" font-family="Helvetica,sans-Serif" font-size="10.00">iomanip</text>
</a>
</g>
</g>
<!-- Node11&#45;&gt;Node16 -->
<g id="edge22_Node000011_Node000016" class="edge">
<title>Node11&#45;&gt;Node16</title>
<g id="a_edge22_Node000011_Node000016"><a xlink:title=" ">
<path fill="none" stroke="#63b8ff" d="M490.81,-111.59C485.92,-104.47 479.06,-94.45 473.07,-85.72"/>
<polygon fill="#63b8ff" stroke="#63b8ff" points="476.02,-83.82 467.48,-77.55 470.24,-87.77 476.02,-83.82"/>
</a>
</g>
</g>
<!-- Node17&#45;&gt;Node3 -->
<g id="edge24_Node000017_Node000003" class="edge">
<title>Node17&#45;&gt;Node3</title>
<g id="a_edge24_Node000017_Node000003"><a xlink:title=" ">
<path fill="none" stroke="#63b8ff" d="M265.73,-167.96C221.83,-158.84 153.86,-144.73 105.81,-134.75"/>
<polygon fill="#63b8ff" stroke="#63b8ff" points="106.64,-131.35 96.14,-132.74 105.22,-138.2 106.64,-131.35"/>
</a>
</g>
</g>
<!-- Node17&#45;&gt;Node7 -->
<g id="edge26_Node000017_Node000007" class="edge">
<title>Node17&#45;&gt;Node7</title>
<g id="a_edge26_Node000017_Node000007"><a xlink:title=" ">
<path fill="none" stroke="#63b8ff" d="M304.02,-167.59C300.15,-160.63 294.74,-150.89 289.97,-142.29"/>
<polygon fill="#63b8ff" stroke="#63b8ff" points="293.07,-140.66 285.15,-133.62 286.95,-144.06 293.07,-140.66"/>
</a>
</g>
</g>
<!-- Node17&#45;&gt;Node8 -->
<g id="edge25_Node000017_Node000008" class="edge">
<title>Node17&#45;&gt;Node8</title>
<g id="a_edge25_Node000017_Node000008"><a xlink:title=" ">
<path fill="none" stroke="#63b8ff" d="M284.17,-167.59C261.18,-158.97 226.9,-146.12 201.04,-136.42"/>
<polygon fill="#63b8ff" stroke="#63b8ff" points="202.54,-133.25 191.95,-133.01 200.08,-139.8 202.54,-133.25"/>
</a>
</g>
</g>
<!-- Node17&#45;&gt;Node9 -->
<g id="edge27_Node000017_Node000009" class="edge">
<title>Node17&#45;&gt;Node9</title>
<g id="a_edge27_Node000017_Node000009"><a xlink:title=" ">
<path fill="none" stroke="#63b8ff" d="M324.4,-167.59C337.3,-159.59 356.08,-147.93 371.21,-138.54"/>
<polygon fill="#63b8ff" stroke="#63b8ff" points="373.04,-141.53 379.69,-133.28 369.35,-135.58 373.04,-141.53"/>
</a>
</g>
</g>
<!-- Node17&#45;&gt;Node11 -->
<g id="edge28_Node000017_Node000011" class="edge">
<title>Node17&#45;&gt;Node11</title>
<g id="a_edge28_Node000017_Node000011"><a xlink:title=" ">
<path fill="none" stroke="#63b8ff" d="M342,-167.59C373,-158.69 419.74,-145.26 453.84,-135.47"/>
<polygon fill="#63b8ff" stroke="#63b8ff" points="454.78,-138.84 463.42,-132.72 452.85,-132.11 454.78,-138.84"/>
</a>
</g>
</g>
</g>
</svg>
