<?xml version="1.0" encoding="UTF-8" standalone="no"?>
<!DOCTYPE svg PUBLIC "-//W3C//DTD SVG 1.1//EN"
 "http://www.w3.org/Graphics/SVG/1.1/DTD/svg11.dtd">
<!-- Generated by graphviz version 12.1.1 (20240910.0053)
 -->
<!-- Title: Battery_Sensor Pages: 1 -->
<svg width="105pt" height="260pt"
 viewBox="0.00 0.00 105.00 260.00" xmlns="http://www.w3.org/2000/svg" xmlns:xlink="http://www.w3.org/1999/xlink">
<g id="graph0" class="graph" transform="scale(1 1) rotate(0) translate(4 256)">
<title>Battery_Sensor</title>
<!-- Node1 -->
<g id="Node000001" class="node">
<title>Node1</title>
<g id="a_Node000001"><a xlink:title="This class is for the car battery.">
<polygon fill="#999999" stroke="none" points="97,-116 0,-116 0,0 97,0 97,-116"/>
<text text-anchor="start" x="14.75" y="-102.5" font-family="Helvetica,sans-Serif" font-size="10.00">Battery_Sensor</text>
<text text-anchor="start" x="47" y="-86.5" font-family="Helvetica,sans-Serif" font-size="10.00"> </text>
<text text-anchor="start" x="4" y="-70.5" font-family="Helvetica,sans-Serif" font-size="10.00">+</text>
<text text-anchor="start" x="14" y="-70.5" font-family="Helvetica,sans-Serif" font-size="10.00">Battery_Sensor()</text>
<text text-anchor="start" x="4" y="-54.5" font-family="Helvetica,sans-Serif" font-size="10.00">+</text>
<text text-anchor="start" x="14" y="-54.5" font-family="Helvetica,sans-Serif" font-size="10.00">~Battery_Sensor()</text>
<text text-anchor="start" x="4" y="-38.5" font-family="Helvetica,sans-Serif" font-size="10.00">+</text>
<text text-anchor="start" x="14" y="-38.5" font-family="Helvetica,sans-Serif" font-size="10.00">getValue()</text>
<text text-anchor="start" x="4" y="-22.5" font-family="Helvetica,sans-Serif" font-size="10.00">+</text>
<text text-anchor="start" x="14" y="-22.5" font-family="Helvetica,sans-Serif" font-size="10.00">update()</text>
<text text-anchor="start" x="4" y="-6.5" font-family="Helvetica,sans-Serif" font-size="10.00">+</text>
<text text-anchor="start" x="14" y="-6.5" font-family="Helvetica,sans-Serif" font-size="10.00">getBatteryTemp()</text>
<polygon fill="#666666" stroke="#666666" points="0,-98 0,-98 97,-98 97,-98 0,-98"/>
<polygon fill="#666666" stroke="#666666" points="0,-82 0,-82 97,-82 97,-82 0,-82"/>
<polygon fill="none" stroke="#666666" points="0,0 0,-116 97,-116 97,0 0,0"/>
</a>
</g>
</g>
<!-- Node2 -->
<g id="Node000002" class="node">
<title>Node2</title>
<g id="a_Node000002"><a xlink:href="class_sensor.html" target="_top" xlink:title="This is an interface Class provides the main methods inherited in all sensors.">
<polygon fill="white" stroke="none" points="79,-252 18,-252 18,-152 79,-152 79,-252"/>
<text text-anchor="start" x="33.12" y="-238.5" font-family="Helvetica,sans-Serif" font-size="10.00">Sensor</text>
<text text-anchor="start" x="47" y="-222.5" font-family="Helvetica,sans-Serif" font-size="10.00"> </text>
<text text-anchor="start" x="22" y="-206.5" font-family="Helvetica,sans-Serif" font-size="10.00">+</text>
<text text-anchor="start" x="32" y="-206.5" font-family="Helvetica,sans-Serif" font-size="10.00">Sensor()</text>
<text text-anchor="start" x="22" y="-190.5" font-family="Helvetica,sans-Serif" font-size="10.00">+</text>
<text text-anchor="start" x="32" y="-190.5" font-family="Helvetica,sans-Serif" font-size="10.00">~Sensor()</text>
<text text-anchor="start" x="22" y="-174.5" font-family="Helvetica,sans-Serif" font-size="10.00">+</text>
<text text-anchor="start" x="32" y="-174.5" font-family="Helvetica,sans-Serif" font-size="10.00">getValue()</text>
<text text-anchor="start" x="22" y="-158.5" font-family="Helvetica,sans-Serif" font-size="10.00">+</text>
<text text-anchor="start" x="32" y="-158.5" font-family="Helvetica,sans-Serif" font-size="10.00">update()</text>
<polygon fill="#666666" stroke="#666666" points="18,-234 18,-234 79,-234 79,-234 18,-234"/>
<polygon fill="#666666" stroke="#666666" points="18,-218 18,-218 79,-218 79,-218 18,-218"/>
<polygon fill="none" stroke="#666666" points="18,-152 18,-252 79,-252 79,-152 18,-152"/>
</a>
</g>
</g>
<!-- Node2&#45;&gt;Node1 -->
<g id="edge1_Node000001_Node000002" class="edge">
<title>Node2&#45;&gt;Node1</title>
<g id="a_edge1_Node000001_Node000002"><a xlink:title=" ">
<path fill="none" stroke="#63b8ff" d="M48.5,-140.65C48.5,-132.4 48.5,-123.96 48.5,-115.78"/>
<polygon fill="none" stroke="#63b8ff" points="45,-140.62 48.5,-150.62 52,-140.62 45,-140.62"/>
</a>
</g>
</g>
</g>
</svg>
