<?xml version="1.0" encoding="UTF-8" standalone="no"?>
<!DOCTYPE svg PUBLIC "-//W3C//DTD SVG 1.1//EN"
 "http://www.w3.org/Graphics/SVG/1.1/DTD/svg11.dtd">
<!-- Generated by graphviz version 12.1.1 (20240910.0053)
 -->
<!-- Title: Sensor Pages: 1 -->
<svg width="436pt" height="260pt"
 viewBox="0.00 0.00 435.50 260.00" xmlns="http://www.w3.org/2000/svg" xmlns:xlink="http://www.w3.org/1999/xlink">
<g id="graph0" class="graph" transform="scale(1 1) rotate(0) translate(4 256)">
<title>Sensor</title>
<!-- Node1 -->
<g id="Node000001" class="node">
<title>Node1</title>
<g id="a_Node000001"><a xlink:title="This is an interface Class provides the main methods inherited in all sensors.">
<polygon fill="#999999" stroke="none" points="247,-252 186,-252 186,-152 247,-152 247,-252"/>
<text text-anchor="start" x="201.12" y="-238.5" font-family="Helvetica,sans-Serif" font-size="10.00">Sensor</text>
<text text-anchor="start" x="215" y="-222.5" font-family="Helvetica,sans-Serif" font-size="10.00"> </text>
<text text-anchor="start" x="190" y="-206.5" font-family="Helvetica,sans-Serif" font-size="10.00">+</text>
<text text-anchor="start" x="200" y="-206.5" font-family="Helvetica,sans-Serif" font-size="10.00">Sensor()</text>
<text text-anchor="start" x="190" y="-190.5" font-family="Helvetica,sans-Serif" font-size="10.00">+</text>
<text text-anchor="start" x="200" y="-190.5" font-family="Helvetica,sans-Serif" font-size="10.00">~Sensor()</text>
<text text-anchor="start" x="190" y="-174.5" font-family="Helvetica,sans-Serif" font-size="10.00">+</text>
<text text-anchor="start" x="200" y="-174.5" font-family="Helvetica,sans-Serif" font-size="10.00">getValue()</text>
<text text-anchor="start" x="190" y="-158.5" font-family="Helvetica,sans-Serif" font-size="10.00">+</text>
<text text-anchor="start" x="200" y="-158.5" font-family="Helvetica,sans-Serif" font-size="10.00">update()</text>
<polygon fill="#666666" stroke="#666666" points="186,-234 186,-234 247,-234 247,-234 186,-234"/>
<polygon fill="#666666" stroke="#666666" points="186,-218 186,-218 247,-218 247,-218 186,-218"/>
<polygon fill="none" stroke="#666666" points="186,-152 186,-252 247,-252 247,-152 186,-152"/>
</a>
</g>
</g>
<!-- Node2 -->
<g id="Node000002" class="node">
<title>Node2</title>
<g id="a_Node000002"><a xlink:href="class_battery___sensor.html" target="_top" xlink:title="This class is for the car battery.">
<polygon fill="white" stroke="none" points="97,-116 0,-116 0,0 97,0 97,-116"/>
<text text-anchor="start" x="14.75" y="-102.5" font-family="Helvetica,sans-Serif" font-size="10.00">Battery_Sensor</text>
<text text-anchor="start" x="47" y="-86.5" font-family="Helvetica,sans-Serif" font-size="10.00"> </text>
<text text-anchor="start" x="4" y="-70.5" font-family="Helvetica,sans-Serif" font-size="10.00">+</text>
<text text-anchor="start" x="14" y="-70.5" font-family="Helvetica,sans-Serif" font-size="10.00">Battery_Sensor()</text>
<text text-anchor="start" x="4" y="-54.5" font-family="Helvetica,sans-Serif" font-size="10.00">+</text>
<text text-anchor="start" x="14" y="-54.5" font-family="Helvetica,sans-Serif" font-size="10.00">~Battery_Sensor()</text>
<text text-anchor="start" x="4" y="-38.5" font-family="Helvetica,sans-Serif" font-size="10.00">+</text>
<text text-anchor="start" x="14" y="-38.5" font-family="Helvetica,sans-Serif" font-size="10.00">getValue()</text>
<text text-anchor="start" x="4" y="-22.5" font-family="Helvetica,sans-Serif" font-size="10.00">+</text>
<text text-anchor="start" x="14" y="-22.5" font-family="Helvetica,sans-Serif" font-size="10.00">update()</text>
<text text-anchor="start" x="4" y="-6.5" font-family="Helvetica,sans-Serif" font-size="10.00">+</text>
<text text-anchor="start" x="14" y="-6.5" font-family="Helvetica,sans-Serif" font-size="10.00">getBatteryTemp()</text>
<polygon fill="#666666" stroke="#666666" points="0,-98 0,-98 97,-98 97,-98 0,-98"/>
<polygon fill="#666666" stroke="#666666" points="0,-82 0,-82 97,-82 97,-82 0,-82"/>
<polygon fill="none" stroke="#666666" points="0,0 0,-116 97,-116 97,0 0,0"/>
</a>
</g>
</g>
<!-- Node1&#45;&gt;Node2 -->
<g id="edge1_Node000001_Node000002" class="edge">
<title>Node1&#45;&gt;Node2</title>
<g id="a_edge1_Node000001_Node000002"><a xlink:title=" ">
<path fill="none" stroke="#63b8ff" d="M177.2,-172.42C155.81,-156.42 129.16,-135.76 106.5,-116 103.31,-113.22 100.07,-110.3 96.83,-107.33"/>
<polygon fill="none" stroke="#63b8ff" points="175,-175.14 185.11,-178.29 179.17,-169.52 175,-175.14"/>
</a>
</g>
</g>
<!-- Node3 -->
<g id="Node000003" class="node">
<title>Node3</title>
<g id="a_Node000003"><a xlink:href="class_radar___sensor.html" target="_top" xlink:title="This class is for the radar sensor.">
<polygon fill="white" stroke="none" points="207.5,-108 115.5,-108 115.5,-8 207.5,-8 207.5,-108"/>
<text text-anchor="start" x="130.38" y="-94.5" font-family="Helvetica,sans-Serif" font-size="10.00">Radar_Sensor</text>
<text text-anchor="start" x="160" y="-78.5" font-family="Helvetica,sans-Serif" font-size="10.00"> </text>
<text text-anchor="start" x="119.5" y="-62.5" font-family="Helvetica,sans-Serif" font-size="10.00">+</text>
<text text-anchor="start" x="129.5" y="-62.5" font-family="Helvetica,sans-Serif" font-size="10.00">Radar_Sensor()</text>
<text text-anchor="start" x="119.5" y="-46.5" font-family="Helvetica,sans-Serif" font-size="10.00">+</text>
<text text-anchor="start" x="129.5" y="-46.5" font-family="Helvetica,sans-Serif" font-size="10.00">~Radar_Sensor()</text>
<text text-anchor="start" x="119.5" y="-30.5" font-family="Helvetica,sans-Serif" font-size="10.00">+</text>
<text text-anchor="start" x="129.5" y="-30.5" font-family="Helvetica,sans-Serif" font-size="10.00">getValue()</text>
<text text-anchor="start" x="119.5" y="-14.5" font-family="Helvetica,sans-Serif" font-size="10.00">+</text>
<text text-anchor="start" x="129.5" y="-14.5" font-family="Helvetica,sans-Serif" font-size="10.00">update()</text>
<polygon fill="#666666" stroke="#666666" points="115.5,-90 115.5,-90 207.5,-90 207.5,-90 115.5,-90"/>
<polygon fill="#666666" stroke="#666666" points="115.5,-74 115.5,-74 207.5,-74 207.5,-74 115.5,-74"/>
<polygon fill="none" stroke="#666666" points="115.5,-8 115.5,-108 207.5,-108 207.5,-8 115.5,-8"/>
</a>
</g>
</g>
<!-- Node1&#45;&gt;Node3 -->
<g id="edge2_Node000001_Node000003" class="edge">
<title>Node1&#45;&gt;Node3</title>
<g id="a_edge2_Node000001_Node000003"><a xlink:title=" ">
<path fill="none" stroke="#63b8ff" d="M193.48,-141.56C189.14,-130.37 184.66,-118.78 180.46,-107.96"/>
<polygon fill="none" stroke="#63b8ff" points="190.15,-142.66 197.03,-150.72 196.68,-140.13 190.15,-142.66"/>
</a>
</g>
</g>
<!-- Node4 -->
<g id="Node000004" class="node">
<title>Node4</title>
<g id="a_Node000004"><a xlink:href="class_speed___sensor.html" target="_top" xlink:title="This class is for the car&#39;s speed sensor.">
<polygon fill="white" stroke="none" points="319,-116 226,-116 226,0 319,0 319,-116"/>
<text text-anchor="start" x="240.62" y="-102.5" font-family="Helvetica,sans-Serif" font-size="10.00">Speed_Sensor</text>
<text text-anchor="start" x="271" y="-86.5" font-family="Helvetica,sans-Serif" font-size="10.00"> </text>
<text text-anchor="start" x="230" y="-70.5" font-family="Helvetica,sans-Serif" font-size="10.00">+</text>
<text text-anchor="start" x="240" y="-70.5" font-family="Helvetica,sans-Serif" font-size="10.00">Speed_Sensor()</text>
<text text-anchor="start" x="230" y="-54.5" font-family="Helvetica,sans-Serif" font-size="10.00">+</text>
<text text-anchor="start" x="240" y="-54.5" font-family="Helvetica,sans-Serif" font-size="10.00">~Speed_Sensor()</text>
<text text-anchor="start" x="230" y="-38.5" font-family="Helvetica,sans-Serif" font-size="10.00">+</text>
<text text-anchor="start" x="240" y="-38.5" font-family="Helvetica,sans-Serif" font-size="10.00">getValue()</text>
<text text-anchor="start" x="230" y="-22.5" font-family="Helvetica,sans-Serif" font-size="10.00">+</text>
<text text-anchor="start" x="240" y="-22.5" font-family="Helvetica,sans-Serif" font-size="10.00">update()</text>
<text text-anchor="start" x="230" y="-6.5" font-family="Helvetica,sans-Serif" font-size="10.00">+</text>
<text text-anchor="start" x="240" y="-6.5" font-family="Helvetica,sans-Serif" font-size="10.00">controlSpeed()</text>
<polygon fill="#666666" stroke="#666666" points="226,-98 226,-98 319,-98 319,-98 226,-98"/>
<polygon fill="#666666" stroke="#666666" points="226,-82 226,-82 319,-82 319,-82 226,-82"/>
<polygon fill="none" stroke="#666666" points="226,0 226,-116 319,-116 319,0 226,0"/>
</a>
</g>
</g>
<!-- Node1&#45;&gt;Node4 -->
<g id="edge3_Node000001_Node000004" class="edge">
<title>Node1&#45;&gt;Node4</title>
<g id="a_edge3_Node000001_Node000004"><a xlink:title=" ">
<path fill="none" stroke="#63b8ff" d="M239.96,-141.5C243.32,-132.98 246.77,-124.24 250.11,-115.78"/>
<polygon fill="none" stroke="#63b8ff" points="236.74,-140.14 236.33,-150.72 243.25,-142.7 236.74,-140.14"/>
</a>
</g>
</g>
<!-- Node5 -->
<g id="Node000005" class="node">
<title>Node5</title>
<g id="a_Node000005"><a xlink:href="class_temp___sensor.html" target="_top" xlink:title="This class is for the car&#39;s temperature sensor.">
<polygon fill="white" stroke="none" points="427.5,-108 337.5,-108 337.5,-8 427.5,-8 427.5,-108"/>
<text text-anchor="start" x="352.5" y="-94.5" font-family="Helvetica,sans-Serif" font-size="10.00">Temp_Sensor</text>
<text text-anchor="start" x="381" y="-78.5" font-family="Helvetica,sans-Serif" font-size="10.00"> </text>
<text text-anchor="start" x="341.5" y="-62.5" font-family="Helvetica,sans-Serif" font-size="10.00">+</text>
<text text-anchor="start" x="351.5" y="-62.5" font-family="Helvetica,sans-Serif" font-size="10.00">Temp_Sensor()</text>
<text text-anchor="start" x="341.5" y="-46.5" font-family="Helvetica,sans-Serif" font-size="10.00">+</text>
<text text-anchor="start" x="351.5" y="-46.5" font-family="Helvetica,sans-Serif" font-size="10.00">~Temp_Sensor()</text>
<text text-anchor="start" x="341.5" y="-30.5" font-family="Helvetica,sans-Serif" font-size="10.00">+</text>
<text text-anchor="start" x="351.5" y="-30.5" font-family="Helvetica,sans-Serif" font-size="10.00">getValue()</text>
<text text-anchor="start" x="341.5" y="-14.5" font-family="Helvetica,sans-Serif" font-size="10.00">+</text>
<text text-anchor="start" x="351.5" y="-14.5" font-family="Helvetica,sans-Serif" font-size="10.00">update()</text>
<polygon fill="#666666" stroke="#666666" points="337.5,-90 337.5,-90 427.5,-90 427.5,-90 337.5,-90"/>
<polygon fill="#666666" stroke="#666666" points="337.5,-74 337.5,-74 427.5,-74 427.5,-74 337.5,-74"/>
<polygon fill="none" stroke="#666666" points="337.5,-8 337.5,-108 427.5,-108 427.5,-8 337.5,-8"/>
</a>
</g>
</g>
<!-- Node1&#45;&gt;Node5 -->
<g id="edge4_Node000001_Node000005" class="edge">
<title>Node1&#45;&gt;Node5</title>
<g id="a_edge4_Node000001_Node000005"><a xlink:title=" ">
<path fill="none" stroke="#63b8ff" d="M255.64,-173.72C277.73,-157.73 305.44,-136.67 328.5,-116 331.55,-113.27 334.62,-110.4 337.67,-107.45"/>
<polygon fill="none" stroke="#63b8ff" points="253.86,-170.69 247.77,-179.36 257.94,-176.37 253.86,-170.69"/>
</a>
</g>
</g>
</g>
</svg>
