<?xml version="1.0" encoding="UTF-8" standalone="no"?>
<!DOCTYPE svg PUBLIC "-//W3C//DTD SVG 1.1//EN"
 "http://www.w3.org/Graphics/SVG/1.1/DTD/svg11.dtd">
<!-- Generated by graphviz version 12.1.1 (20240910.0053)
 -->
<!-- Title: Graphical Class Hierarchy Pages: 1 -->
<svg width="174pt" height="142pt"
 viewBox="0.00 0.00 174.25 142.00" xmlns="http://www.w3.org/2000/svg" xmlns:xlink="http://www.w3.org/1999/xlink">
<g id="graph0" class="graph" transform="scale(1 1) rotate(0) translate(4 138)">
<title>Graphical Class Hierarchy</title>
<!-- Node0 -->
<g id="Node000000" class="node">
<title>Node0</title>
<g id="a_Node000000"><a xlink:href="class_sensor.html" target="_top" xlink:title="This is an interface Class provides the main methods inherited in all sensors.">
<polygon fill="white" stroke="#666666" points="46.75,-77 0,-77 0,-57 46.75,-57 46.75,-77"/>
<text text-anchor="middle" x="23.38" y="-63.5" font-family="Helvetica,sans-Serif" font-size="10.00">Sensor</text>
</a>
</g>
</g>
<!-- Node1 -->
<g id="Node000001" class="node">
<title>Node1</title>
<g id="a_Node000001"><a xlink:href="class_battery___sensor.html" target="_top" xlink:title="This class is for the car battery.">
<polygon fill="white" stroke="#666666" points="166.25,-134 82.75,-134 82.75,-114 166.25,-114 166.25,-134"/>
<text text-anchor="middle" x="124.5" y="-120.5" font-family="Helvetica,sans-Serif" font-size="10.00">Battery_Sensor</text>
</a>
</g>
</g>
<!-- Node0&#45;&gt;Node1 -->
<g id="edge1_Node000000_Node000001" class="edge">
<title>Node0&#45;&gt;Node1</title>
<g id="a_edge1_Node000000_Node000001"><a xlink:title=" ">
<path fill="none" stroke="#63b8ff" d="M48.15,-83.56C58.56,-90.53 71.05,-98.51 82.75,-105 88.07,-107.95 93.94,-110.87 99.52,-113.5"/>
<polygon fill="#63b8ff" stroke="#63b8ff" points="50.39,-80.85 40.15,-78.12 46.45,-86.64 50.39,-80.85"/>
</a>
</g>
</g>
<!-- Node2 -->
<g id="Node000002" class="node">
<title>Node2</title>
<g id="a_Node000002"><a xlink:href="class_radar___sensor.html" target="_top" xlink:title="This class is for the radar sensor.">
<polygon fill="white" stroke="#666666" points="163.62,-96 85.38,-96 85.38,-76 163.62,-76 163.62,-96"/>
<text text-anchor="middle" x="124.5" y="-82.5" font-family="Helvetica,sans-Serif" font-size="10.00">Radar_Sensor</text>
</a>
</g>
</g>
<!-- Node0&#45;&gt;Node2 -->
<g id="edge2_Node000000_Node000002" class="edge">
<title>Node0&#45;&gt;Node2</title>
<g id="a_edge2_Node000000_Node000002"><a xlink:title=" ">
<path fill="none" stroke="#63b8ff" d="M58.15,-73.47C66.84,-75.14 76.25,-76.94 85.15,-78.65"/>
<polygon fill="#63b8ff" stroke="#63b8ff" points="58.83,-70.04 48.35,-71.6 57.52,-76.92 58.83,-70.04"/>
</a>
</g>
</g>
<!-- Node3 -->
<g id="Node000003" class="node">
<title>Node3</title>
<g id="a_Node000003"><a xlink:href="class_speed___sensor.html" target="_top" xlink:title="This class is for the car&#39;s speed sensor.">
<polygon fill="white" stroke="#666666" points="164.38,-58 84.62,-58 84.62,-38 164.38,-38 164.38,-58"/>
<text text-anchor="middle" x="124.5" y="-44.5" font-family="Helvetica,sans-Serif" font-size="10.00">Speed_Sensor</text>
</a>
</g>
</g>
<!-- Node0&#45;&gt;Node3 -->
<g id="edge3_Node000000_Node000003" class="edge">
<title>Node0&#45;&gt;Node3</title>
<g id="a_edge3_Node000000_Node000003"><a xlink:title=" ">
<path fill="none" stroke="#63b8ff" d="M57.91,-60.57C66.41,-58.94 75.61,-57.18 84.36,-55.5"/>
<polygon fill="#63b8ff" stroke="#63b8ff" points="57.52,-57.08 48.35,-62.4 58.83,-63.96 57.52,-57.08"/>
</a>
</g>
</g>
<!-- Node4 -->
<g id="Node000004" class="node">
<title>Node4</title>
<g id="a_Node000004"><a xlink:href="class_temp___sensor.html" target="_top" xlink:title="This class is for the car&#39;s temperature sensor.">
<polygon fill="white" stroke="#666666" points="162.5,-20 86.5,-20 86.5,0 162.5,0 162.5,-20"/>
<text text-anchor="middle" x="124.5" y="-6.5" font-family="Helvetica,sans-Serif" font-size="10.00">Temp_Sensor</text>
</a>
</g>
</g>
<!-- Node0&#45;&gt;Node4 -->
<g id="edge4_Node000000_Node000004" class="edge">
<title>Node0&#45;&gt;Node4</title>
<g id="a_edge4_Node000000_Node000004"><a xlink:title=" ">
<path fill="none" stroke="#63b8ff" d="M48.15,-50.44C58.56,-43.47 71.05,-35.49 82.75,-29 88.07,-26.05 93.94,-23.13 99.52,-20.5"/>
<polygon fill="#63b8ff" stroke="#63b8ff" points="46.45,-47.36 40.15,-55.88 50.39,-53.15 46.45,-47.36"/>
</a>
</g>
</g>
</g>
</svg>
